<svg width="719" height="390" viewBox="0 0 719 390" fill="none" xmlns="http://www.w3.org/2000/svg">
<path d="M24.9034 29.5V28.733L27.7841 25.5795C28.1222 25.2102 28.4006 24.8892 28.6193 24.6165C28.8381 24.3409 29 24.0824 29.1051 23.8409C29.2131 23.5966 29.267 23.3409 29.267 23.0739C29.267 22.767 29.1932 22.5014 29.0455 22.277C28.9006 22.0526 28.7017 21.8793 28.4489 21.7571C28.196 21.6349 27.9119 21.5739 27.5966 21.5739C27.2614 21.5739 26.9688 21.6435 26.7188 21.7827C26.4716 21.919 26.2798 22.1108 26.1435 22.358C26.0099 22.6051 25.9432 22.8949 25.9432 23.2273H24.9375C24.9375 22.7159 25.0554 22.267 25.2912 21.8807C25.527 21.4943 25.848 21.1932 26.2543 20.9773C26.6634 20.7614 27.1222 20.6534 27.6307 20.6534C28.142 20.6534 28.5952 20.7614 28.9901 20.9773C29.3849 21.1932 29.6946 21.4844 29.919 21.8509C30.1435 22.2173 30.2557 22.625 30.2557 23.0739C30.2557 23.3949 30.1974 23.7088 30.081 24.0156C29.9673 24.3196 29.7685 24.6591 29.4844 25.0341C29.2031 25.4062 28.8125 25.8608 28.3125 26.3977L26.3523 28.4943V28.5625H30.4091V29.5H24.9034ZM35.0156 29.6193C34.3736 29.6193 33.8267 29.4446 33.375 29.0952C32.9233 28.7429 32.5781 28.233 32.3395 27.5653C32.1009 26.8949 31.9815 26.0852 31.9815 25.1364C31.9815 24.1932 32.1009 23.3878 32.3395 22.7202C32.581 22.0497 32.9276 21.5384 33.3793 21.1861C33.8338 20.831 34.3793 20.6534 35.0156 20.6534C35.652 20.6534 36.196 20.831 36.6477 21.1861C37.1023 21.5384 37.4489 22.0497 37.6875 22.7202C37.929 23.3878 38.0497 24.1932 38.0497 25.1364C38.0497 26.0852 37.9304 26.8949 37.6918 27.5653C37.4531 28.233 37.108 28.7429 36.6562 29.0952C36.2045 29.4446 35.6577 29.6193 35.0156 29.6193ZM35.0156 28.6818C35.652 28.6818 36.1463 28.375 36.4986 27.7614C36.8509 27.1477 37.027 26.2727 37.027 25.1364C37.027 24.3807 36.946 23.7372 36.7841 23.206C36.625 22.6747 36.3949 22.2699 36.0938 21.9915C35.7955 21.7131 35.4361 21.5739 35.0156 21.5739C34.3849 21.5739 33.892 21.8849 33.5369 22.5071C33.1818 23.1264 33.0043 24.0028 33.0043 25.1364C33.0043 25.892 33.0838 26.5341 33.2429 27.0625C33.402 27.5909 33.6307 27.9929 33.929 28.2685C34.2301 28.544 34.5923 28.6818 35.0156 28.6818Z" fill="#09090B"/>
<path d="M29.9716 99.7727V108.5H28.9148V100.881H28.8636L26.733 102.295V101.222L28.9148 99.7727H29.9716ZM35.2088 108.619C34.7088 108.619 34.2585 108.52 33.858 108.321C33.4574 108.122 33.1364 107.849 32.8949 107.503C32.6534 107.156 32.5213 106.761 32.4986 106.318H33.5213C33.5611 106.713 33.7401 107.04 34.0582 107.298C34.3793 107.554 34.7628 107.682 35.2088 107.682C35.5668 107.682 35.8849 107.598 36.1634 107.43C36.4446 107.263 36.6648 107.033 36.8239 106.74C36.9858 106.445 37.0668 106.111 37.0668 105.739C37.0668 105.358 36.983 105.018 36.8153 104.72C36.6506 104.419 36.4233 104.182 36.1335 104.009C35.8438 103.835 35.5128 103.747 35.1406 103.744C34.8736 103.741 34.5994 103.783 34.3182 103.868C34.0369 103.95 33.8054 104.057 33.6236 104.188L32.6349 104.068L33.1634 99.7727H37.6974V100.71H34.0497L33.7429 103.284H33.794C33.973 103.142 34.1974 103.024 34.4673 102.93C34.7372 102.837 35.0185 102.79 35.3111 102.79C35.8452 102.79 36.321 102.918 36.7386 103.173C37.1591 103.426 37.4886 103.773 37.7273 104.213C37.9688 104.653 38.0895 105.156 38.0895 105.722C38.0895 106.278 37.9645 106.776 37.7145 107.213C37.4673 107.648 37.1264 107.991 36.6918 108.244C36.2571 108.494 35.7628 108.619 35.2088 108.619Z" fill="#09090B"/>
<path d="M28.9716 178.773V187.5H27.9148V179.881H27.8636L25.733 181.295V180.222L27.9148 178.773H28.9716ZM34.3281 187.619C33.6861 187.619 33.1392 187.445 32.6875 187.095C32.2358 186.743 31.8906 186.233 31.652 185.565C31.4134 184.895 31.294 184.085 31.294 183.136C31.294 182.193 31.4134 181.388 31.652 180.72C31.8935 180.05 32.2401 179.538 32.6918 179.186C33.1463 178.831 33.6918 178.653 34.3281 178.653C34.9645 178.653 35.5085 178.831 35.9602 179.186C36.4148 179.538 36.7614 180.05 37 180.72C37.2415 181.388 37.3622 182.193 37.3622 183.136C37.3622 184.085 37.2429 184.895 37.0043 185.565C36.7656 186.233 36.4205 186.743 35.9688 187.095C35.517 187.445 34.9702 187.619 34.3281 187.619ZM34.3281 186.682C34.9645 186.682 35.4588 186.375 35.8111 185.761C36.1634 185.148 36.3395 184.273 36.3395 183.136C36.3395 182.381 36.2585 181.737 36.0966 181.206C35.9375 180.675 35.7074 180.27 35.4062 179.991C35.108 179.713 34.7486 179.574 34.3281 179.574C33.6974 179.574 33.2045 179.885 32.8494 180.507C32.4943 181.126 32.3168 182.003 32.3168 183.136C32.3168 183.892 32.3963 184.534 32.5554 185.062C32.7145 185.591 32.9432 185.993 33.2415 186.268C33.5426 186.544 33.9048 186.682 34.3281 186.682Z" fill="#09090B"/>
<path d="M34.6307 266.619C34.1307 266.619 33.6804 266.52 33.2798 266.321C32.8793 266.122 32.5582 265.849 32.3168 265.503C32.0753 265.156 31.9432 264.761 31.9205 264.318H32.9432C32.983 264.713 33.1619 265.04 33.4801 265.298C33.8011 265.554 34.1847 265.682 34.6307 265.682C34.9886 265.682 35.3068 265.598 35.5852 265.43C35.8665 265.263 36.0866 265.033 36.2457 264.74C36.4077 264.445 36.4886 264.111 36.4886 263.739C36.4886 263.358 36.4048 263.018 36.2372 262.72C36.0724 262.419 35.8452 262.182 35.5554 262.009C35.2656 261.835 34.9347 261.747 34.5625 261.744C34.2955 261.741 34.0213 261.783 33.7401 261.868C33.4588 261.95 33.2273 262.057 33.0455 262.188L32.0568 262.068L32.5852 257.773H37.1193V258.71H33.4716L33.1648 261.284H33.2159C33.3949 261.142 33.6193 261.024 33.8892 260.93C34.1591 260.837 34.4403 260.79 34.733 260.79C35.267 260.79 35.7429 260.918 36.1605 261.173C36.581 261.426 36.9105 261.773 37.1491 262.213C37.3906 262.653 37.5114 263.156 37.5114 263.722C37.5114 264.278 37.3864 264.776 37.1364 265.213C36.8892 265.648 36.5483 265.991 36.1136 266.244C35.679 266.494 35.1847 266.619 34.6307 266.619Z" fill="#09090B"/>
<path d="M34.75 345.619C34.108 345.619 33.5611 345.445 33.1094 345.095C32.6577 344.743 32.3125 344.233 32.0739 343.565C31.8352 342.895 31.7159 342.085 31.7159 341.136C31.7159 340.193 31.8352 339.388 32.0739 338.72C32.3153 338.05 32.6619 337.538 33.1136 337.186C33.5682 336.831 34.1136 336.653 34.75 336.653C35.3864 336.653 35.9304 336.831 36.3821 337.186C36.8366 337.538 37.1832 338.05 37.4219 338.72C37.6634 339.388 37.7841 340.193 37.7841 341.136C37.7841 342.085 37.6648 342.895 37.4261 343.565C37.1875 344.233 36.8423 344.743 36.3906 345.095C35.9389 345.445 35.392 345.619 34.75 345.619ZM34.75 344.682C35.3864 344.682 35.8807 344.375 36.233 343.761C36.5852 343.148 36.7614 342.273 36.7614 341.136C36.7614 340.381 36.6804 339.737 36.5185 339.206C36.3594 338.675 36.1293 338.27 35.8281 337.991C35.5298 337.713 35.1705 337.574 34.75 337.574C34.1193 337.574 33.6264 337.885 33.2713 338.507C32.9162 339.126 32.7386 340.003 32.7386 341.136C32.7386 341.892 32.8182 342.534 32.9773 343.062C33.1364 343.591 33.3651 343.993 33.6634 344.268C33.9645 344.544 34.3267 344.682 34.75 344.682Z" fill="#09090B"/>
<path d="M53 74C53 70.6863 55.6863 68 59 68H89C92.3137 68 95 70.6863 95 74V337H53V74Z" fill="#502694"/>
<path d="M107.532 109C107.532 105.686 110.218 103 113.532 103H143.532C146.845 103 149.532 105.686 149.532 109V337H107.532V109Z" fill="#502694"/>
<path d="M162.064 249C162.064 245.686 164.75 243 168.064 243H198.064C201.377 243 204.064 245.686 204.064 249V337H162.064V249Z" fill="#502694"/>
<path d="M216.595 161C216.595 157.686 219.282 155 222.595 155H252.595C255.909 155 258.595 157.686 258.595 161V337H216.595V161Z" fill="#502694"/>
<path d="M271.127 136C271.127 132.686 273.813 130 277.127 130H307.127C310.441 130 313.127 132.686 313.127 136V337H271.127V136Z" fill="#502694"/>
<path d="M325.659 56C325.659 52.6863 328.345 50 331.659 50H361.659C364.973 50 367.659 52.6863 367.659 56V337H325.659V56Z" fill="#502694"/>
<path d="M380.191 136C380.191 132.686 382.877 130 386.191 130H416.191C419.505 130 422.191 132.686 422.191 136V337H380.191V136Z" fill="#502694"/>
<path d="M434.723 280C434.723 276.686 437.409 274 440.723 274H470.723C474.036 274 476.723 276.686 476.723 280V337H434.723V280Z" fill="#502694"/>
<path d="M489.254 136C489.254 132.686 491.941 130 495.254 130H525.254C528.568 130 531.254 132.686 531.254 136V337H489.254V136Z" fill="#502694"/>
<path d="M543.786 280C543.786 276.686 546.472 274 549.786 274H579.786C583.1 274 585.786 276.686 585.786 280V337H543.786V280Z" fill="#502694"/>
<path d="M598.318 61C598.318 57.6863 601.004 55 604.318 55H634.318C637.632 55 640.318 57.6863 640.318 61V337H598.318V61Z" fill="#502694"/>
<path d="M652.85 68C652.85 64.6863 655.536 62 658.85 62H688.85C692.164 62 694.85 64.6863 694.85 68V337H652.85V68Z" fill="#502694"/>
<path d="M64.2437 363.119C63.6016 363.119 63.0547 362.945 62.603 362.595C62.1513 362.243 61.8062 361.733 61.5675 361.065C61.3289 360.395 61.2096 359.585 61.2096 358.636C61.2096 357.693 61.3289 356.888 61.5675 356.22C61.809 355.55 62.1556 355.038 62.6073 354.686C63.0618 354.331 63.6073 354.153 64.2437 354.153C64.88 354.153 65.4241 354.331 65.8758 354.686C66.3303 355.038 66.6769 355.55 66.9155 356.22C67.157 356.888 67.2777 357.693 67.2777 358.636C67.2777 359.585 67.1584 360.395 66.9198 361.065C66.6812 361.733 66.336 362.243 65.8843 362.595C65.4326 362.945 64.8857 363.119 64.2437 363.119ZM64.2437 362.182C64.88 362.182 65.3743 361.875 65.7266 361.261C66.0789 360.648 66.255 359.773 66.255 358.636C66.255 357.881 66.1741 357.237 66.0121 356.706C65.853 356.175 65.6229 355.77 65.3218 355.491C65.0235 355.213 64.6641 355.074 64.2437 355.074C63.613 355.074 63.1201 355.385 62.765 356.007C62.4098 356.626 62.2323 357.503 62.2323 358.636C62.2323 359.392 62.3118 360.034 62.4709 360.562C62.63 361.091 62.8587 361.493 63.157 361.768C63.4581 362.044 63.8204 362.182 64.2437 362.182ZM71.9652 354.273V363H70.9084V355.381H70.8573L68.7266 356.795V355.722L70.9084 354.273H71.9652ZM77.5775 353.864L74.765 364.312H73.8445L76.657 353.864H77.5775ZM81.5991 363.119C80.9571 363.119 80.4102 362.945 79.9585 362.595C79.5068 362.243 79.1616 361.733 78.923 361.065C78.6843 360.395 78.565 359.585 78.565 358.636C78.565 357.693 78.6843 356.888 78.923 356.22C79.1645 355.55 79.5111 355.038 79.9628 354.686C80.4173 354.331 80.9628 354.153 81.5991 354.153C82.2355 354.153 82.7795 354.331 83.2312 354.686C83.6858 355.038 84.0324 355.55 84.271 356.22C84.5125 356.888 84.6332 357.693 84.6332 358.636C84.6332 359.585 84.5139 360.395 84.2753 361.065C84.0366 361.733 83.6915 362.243 83.2397 362.595C82.788 362.945 82.2412 363.119 81.5991 363.119ZM81.5991 362.182C82.2355 362.182 82.7298 361.875 83.0821 361.261C83.4343 360.648 83.6105 359.773 83.6105 358.636C83.6105 357.881 83.5295 357.237 83.3676 356.706C83.2085 356.175 82.9784 355.77 82.6772 355.491C82.379 355.213 82.0196 355.074 81.5991 355.074C80.9684 355.074 80.4755 355.385 80.1204 356.007C79.7653 356.626 79.5878 357.503 79.5878 358.636C79.5878 359.392 79.6673 360.034 79.8264 360.562C79.9855 361.091 80.2142 361.493 80.5125 361.768C80.8136 362.044 81.1758 362.182 81.5991 362.182ZM89.2014 363.119C88.6389 363.119 88.1375 363.023 87.6971 362.83C87.2596 362.636 86.9116 362.368 86.6531 362.024C86.3974 361.678 86.2582 361.276 86.2355 360.818H87.3093C87.3321 361.099 87.4287 361.342 87.5991 361.547C87.7696 361.749 87.9926 361.905 88.2682 362.016C88.5437 362.126 88.8491 362.182 89.1843 362.182C89.5593 362.182 89.8917 362.116 90.1815 361.986C90.4713 361.855 90.6986 361.673 90.8633 361.44C91.0281 361.207 91.1105 360.938 91.1105 360.631C91.1105 360.31 91.0309 360.027 90.8718 359.783C90.7128 359.536 90.4798 359.342 90.173 359.203C89.8662 359.064 89.4912 358.994 89.048 358.994H88.3491V358.057H89.048C89.3946 358.057 89.6986 357.994 89.9599 357.869C90.2241 357.744 90.4301 357.568 90.5778 357.341C90.7284 357.114 90.8037 356.847 90.8037 356.54C90.8037 356.244 90.7383 355.987 90.6076 355.768C90.477 355.55 90.2923 355.379 90.0537 355.257C89.8179 355.135 89.5395 355.074 89.2184 355.074C88.9173 355.074 88.6332 355.129 88.3662 355.24C88.102 355.348 87.8861 355.506 87.7184 355.713C87.5508 355.918 87.4599 356.165 87.4457 356.455H86.423C86.44 355.997 86.5778 355.597 86.8363 355.253C87.0949 354.906 87.4329 354.636 87.8505 354.443C88.271 354.25 88.7326 354.153 89.2355 354.153C89.7753 354.153 90.2383 354.263 90.6247 354.482C91.0111 354.697 91.3079 354.983 91.5153 355.338C91.7227 355.693 91.8264 356.077 91.8264 356.489C91.8264 356.98 91.6971 357.399 91.4386 357.746C91.1829 358.092 90.8349 358.332 90.3946 358.466V358.534C90.9457 358.625 91.3761 358.859 91.6858 359.237C91.9954 359.612 92.1503 360.077 92.1503 360.631C92.1503 361.105 92.021 361.531 91.7625 361.909C91.5068 362.284 91.1574 362.58 90.7142 362.795C90.271 363.011 89.7667 363.119 89.2014 363.119Z" fill="#09090B"/>
<path d="M117.231 363.119C116.589 363.119 116.042 362.945 115.591 362.595C115.139 362.243 114.794 361.733 114.555 361.065C114.316 360.395 114.197 359.585 114.197 358.636C114.197 357.693 114.316 356.888 114.555 356.22C114.797 355.55 115.143 355.038 115.595 354.686C116.049 354.331 116.595 354.153 117.231 354.153C117.868 354.153 118.412 354.331 118.863 354.686C119.318 355.038 119.664 355.55 119.903 356.22C120.145 356.888 120.265 357.693 120.265 358.636C120.265 359.585 120.146 360.395 119.907 361.065C119.669 361.733 119.324 362.243 118.872 362.595C118.42 362.945 117.873 363.119 117.231 363.119ZM117.231 362.182C117.868 362.182 118.362 361.875 118.714 361.261C119.066 360.648 119.243 359.773 119.243 358.636C119.243 357.881 119.162 357.237 119 356.706C118.841 356.175 118.61 355.77 118.309 355.491C118.011 355.213 117.652 355.074 117.231 355.074C116.601 355.074 116.108 355.385 115.753 356.007C115.397 356.626 115.22 357.503 115.22 358.636C115.22 359.392 115.299 360.034 115.458 360.562C115.618 361.091 115.846 361.493 116.145 361.768C116.446 362.044 116.808 362.182 117.231 362.182ZM121.885 363V362.233L124.765 359.08C125.103 358.71 125.382 358.389 125.601 358.116C125.819 357.841 125.981 357.582 126.086 357.341C126.194 357.097 126.248 356.841 126.248 356.574C126.248 356.267 126.174 356.001 126.027 355.777C125.882 355.553 125.683 355.379 125.43 355.257C125.177 355.135 124.893 355.074 124.578 355.074C124.243 355.074 123.95 355.143 123.7 355.283C123.453 355.419 123.261 355.611 123.125 355.858C122.991 356.105 122.924 356.395 122.924 356.727H121.919C121.919 356.216 122.037 355.767 122.272 355.381C122.508 354.994 122.829 354.693 123.235 354.477C123.645 354.261 124.103 354.153 124.612 354.153C125.123 354.153 125.576 354.261 125.971 354.477C126.366 354.693 126.676 354.984 126.9 355.351C127.125 355.717 127.237 356.125 127.237 356.574C127.237 356.895 127.179 357.209 127.062 357.516C126.949 357.82 126.75 358.159 126.466 358.534C126.184 358.906 125.794 359.361 125.294 359.898L123.333 361.994V362.062H127.39V363H121.885ZM132.253 353.864L129.44 364.312H128.52L131.332 353.864H132.253ZM136.274 363.119C135.632 363.119 135.085 362.945 134.634 362.595C134.182 362.243 133.837 361.733 133.598 361.065C133.359 360.395 133.24 359.585 133.24 358.636C133.24 357.693 133.359 356.888 133.598 356.22C133.84 355.55 134.186 355.038 134.638 354.686C135.092 354.331 135.638 354.153 136.274 354.153C136.911 354.153 137.455 354.331 137.906 354.686C138.361 355.038 138.707 355.55 138.946 356.22C139.188 356.888 139.308 357.693 139.308 358.636C139.308 359.585 139.189 360.395 138.95 361.065C138.712 361.733 138.366 362.243 137.915 362.595C137.463 362.945 136.916 363.119 136.274 363.119ZM136.274 362.182C136.911 362.182 137.405 361.875 137.757 361.261C138.109 360.648 138.286 359.773 138.286 358.636C138.286 357.881 138.205 357.237 138.043 356.706C137.884 356.175 137.653 355.77 137.352 355.491C137.054 355.213 136.695 355.074 136.274 355.074C135.643 355.074 135.151 355.385 134.795 356.007C134.44 356.626 134.263 357.503 134.263 358.636C134.263 359.392 134.342 360.034 134.501 360.562C134.661 361.091 134.889 361.493 135.188 361.768C135.489 362.044 135.851 362.182 136.274 362.182ZM143.876 363.119C143.314 363.119 142.813 363.023 142.372 362.83C141.935 362.636 141.587 362.368 141.328 362.024C141.072 361.678 140.933 361.276 140.911 360.818H141.984C142.007 361.099 142.104 361.342 142.274 361.547C142.445 361.749 142.668 361.905 142.943 362.016C143.219 362.126 143.524 362.182 143.859 362.182C144.234 362.182 144.567 362.116 144.857 361.986C145.146 361.855 145.374 361.673 145.538 361.44C145.703 361.207 145.786 360.938 145.786 360.631C145.786 360.31 145.706 360.027 145.547 359.783C145.388 359.536 145.155 359.342 144.848 359.203C144.541 359.064 144.166 358.994 143.723 358.994H143.024V358.057H143.723C144.07 358.057 144.374 357.994 144.635 357.869C144.899 357.744 145.105 357.568 145.253 357.341C145.403 357.114 145.479 356.847 145.479 356.54C145.479 356.244 145.413 355.987 145.283 355.768C145.152 355.55 144.967 355.379 144.729 355.257C144.493 355.135 144.215 355.074 143.893 355.074C143.592 355.074 143.308 355.129 143.041 355.24C142.777 355.348 142.561 355.506 142.393 355.713C142.226 355.918 142.135 356.165 142.121 356.455H141.098C141.115 355.997 141.253 355.597 141.511 355.253C141.77 354.906 142.108 354.636 142.526 354.443C142.946 354.25 143.408 354.153 143.911 354.153C144.45 354.153 144.913 354.263 145.3 354.482C145.686 354.697 145.983 354.983 146.19 355.338C146.398 355.693 146.501 356.077 146.501 356.489C146.501 356.98 146.372 357.399 146.114 357.746C145.858 358.092 145.51 358.332 145.07 358.466V358.534C145.621 358.625 146.051 358.859 146.361 359.237C146.67 359.612 146.825 360.077 146.825 360.631C146.825 361.105 146.696 361.531 146.438 361.909C146.182 362.284 145.832 362.58 145.389 362.795C144.946 363.011 144.442 363.119 143.876 363.119Z" fill="#09090B"/>
<path d="M171.219 363.119C170.577 363.119 170.03 362.945 169.578 362.595C169.126 362.243 168.781 361.733 168.543 361.065C168.304 360.395 168.185 359.585 168.185 358.636C168.185 357.693 168.304 356.888 168.543 356.22C168.784 355.55 169.131 355.038 169.582 354.686C170.037 354.331 170.582 354.153 171.219 354.153C171.855 354.153 172.399 354.331 172.851 354.686C173.305 355.038 173.652 355.55 173.891 356.22C174.132 356.888 174.253 357.693 174.253 358.636C174.253 359.585 174.134 360.395 173.895 361.065C173.656 361.733 173.311 362.243 172.859 362.595C172.408 362.945 171.861 363.119 171.219 363.119ZM171.219 362.182C171.855 362.182 172.349 361.875 172.702 361.261C173.054 360.648 173.23 359.773 173.23 358.636C173.23 357.881 173.149 357.237 172.987 356.706C172.828 356.175 172.598 355.77 172.297 355.491C171.999 355.213 171.639 355.074 171.219 355.074C170.588 355.074 170.095 355.385 169.74 356.007C169.385 356.626 169.207 357.503 169.207 358.636C169.207 359.392 169.287 360.034 169.446 360.562C169.605 361.091 169.834 361.493 170.132 361.768C170.433 362.044 170.795 362.182 171.219 362.182ZM178.821 363.119C178.259 363.119 177.757 363.023 177.317 362.83C176.879 362.636 176.531 362.368 176.273 362.024C176.017 361.678 175.878 361.276 175.855 360.818H176.929C176.952 361.099 177.048 361.342 177.219 361.547C177.389 361.749 177.612 361.905 177.888 362.016C178.163 362.126 178.469 362.182 178.804 362.182C179.179 362.182 179.511 362.116 179.801 361.986C180.091 361.855 180.318 361.673 180.483 361.44C180.648 361.207 180.73 360.938 180.73 360.631C180.73 360.31 180.651 360.027 180.491 359.783C180.332 359.536 180.099 359.342 179.793 359.203C179.486 359.064 179.111 358.994 178.668 358.994H177.969V358.057H178.668C179.014 358.057 179.318 357.994 179.58 357.869C179.844 357.744 180.05 357.568 180.197 357.341C180.348 357.114 180.423 356.847 180.423 356.54C180.423 356.244 180.358 355.987 180.227 355.768C180.097 355.55 179.912 355.379 179.673 355.257C179.438 355.135 179.159 355.074 178.838 355.074C178.537 355.074 178.253 355.129 177.986 355.24C177.722 355.348 177.506 355.506 177.338 355.713C177.17 355.918 177.08 356.165 177.065 356.455H176.043C176.06 355.997 176.197 355.597 176.456 355.253C176.714 354.906 177.053 354.636 177.47 354.443C177.891 354.25 178.352 354.153 178.855 354.153C179.395 354.153 179.858 354.263 180.244 354.482C180.631 354.697 180.928 354.983 181.135 355.338C181.342 355.693 181.446 356.077 181.446 356.489C181.446 356.98 181.317 357.399 181.058 357.746C180.803 358.092 180.455 358.332 180.014 358.466V358.534C180.565 358.625 180.996 358.859 181.305 359.237C181.615 359.612 181.77 360.077 181.77 360.631C181.77 361.105 181.641 361.531 181.382 361.909C181.126 362.284 180.777 362.58 180.334 362.795C179.891 363.011 179.386 363.119 178.821 363.119ZM186.615 353.864L183.803 364.312H182.882L185.695 353.864H186.615ZM190.637 363.119C189.995 363.119 189.448 362.945 188.996 362.595C188.544 362.243 188.199 361.733 187.961 361.065C187.722 360.395 187.603 359.585 187.603 358.636C187.603 357.693 187.722 356.888 187.961 356.22C188.202 355.55 188.549 355.038 189 354.686C189.455 354.331 190 354.153 190.637 354.153C191.273 354.153 191.817 354.331 192.269 354.686C192.723 355.038 193.07 355.55 193.309 356.22C193.55 356.888 193.671 357.693 193.671 358.636C193.671 359.585 193.551 360.395 193.313 361.065C193.074 361.733 192.729 362.243 192.277 362.595C191.826 362.945 191.279 363.119 190.637 363.119ZM190.637 362.182C191.273 362.182 191.767 361.875 192.12 361.261C192.472 360.648 192.648 359.773 192.648 358.636C192.648 357.881 192.567 357.237 192.405 356.706C192.246 356.175 192.016 355.77 191.715 355.491C191.417 355.213 191.057 355.074 190.637 355.074C190.006 355.074 189.513 355.385 189.158 356.007C188.803 356.626 188.625 357.503 188.625 358.636C188.625 359.392 188.705 360.034 188.864 360.562C189.023 361.091 189.252 361.493 189.55 361.768C189.851 362.044 190.213 362.182 190.637 362.182ZM198.239 363.119C197.676 363.119 197.175 363.023 196.735 362.83C196.297 362.636 195.949 362.368 195.691 362.024C195.435 361.678 195.296 361.276 195.273 360.818H196.347C196.37 361.099 196.466 361.342 196.637 361.547C196.807 361.749 197.03 361.905 197.306 362.016C197.581 362.126 197.887 362.182 198.222 362.182C198.597 362.182 198.929 362.116 199.219 361.986C199.509 361.855 199.736 361.673 199.901 361.44C200.066 361.207 200.148 360.938 200.148 360.631C200.148 360.31 200.069 360.027 199.909 359.783C199.75 359.536 199.517 359.342 199.211 359.203C198.904 359.064 198.529 358.994 198.086 358.994H197.387V358.057H198.086C198.432 358.057 198.736 357.994 198.998 357.869C199.262 357.744 199.468 357.568 199.615 357.341C199.766 357.114 199.841 356.847 199.841 356.54C199.841 356.244 199.776 355.987 199.645 355.768C199.515 355.55 199.33 355.379 199.091 355.257C198.855 355.135 198.577 355.074 198.256 355.074C197.955 355.074 197.671 355.129 197.404 355.24C197.14 355.348 196.924 355.506 196.756 355.713C196.588 355.918 196.498 356.165 196.483 356.455H195.461C195.478 355.997 195.615 355.597 195.874 355.253C196.132 354.906 196.471 354.636 196.888 354.443C197.309 354.25 197.77 354.153 198.273 354.153C198.813 354.153 199.276 354.263 199.662 354.482C200.049 354.697 200.346 354.983 200.553 355.338C200.76 355.693 200.864 356.077 200.864 356.489C200.864 356.98 200.735 357.399 200.476 357.746C200.221 358.092 199.873 358.332 199.432 358.466V358.534C199.983 358.625 200.414 358.859 200.723 359.237C201.033 359.612 201.188 360.077 201.188 360.631C201.188 361.105 201.059 361.531 200.8 361.909C200.544 362.284 200.195 362.58 199.752 362.795C199.309 363.011 198.804 363.119 198.239 363.119Z" fill="#09090B"/>
<path d="M225.206 363.119C224.564 363.119 224.017 362.945 223.565 362.595C223.114 362.243 222.769 361.733 222.53 361.065C222.291 360.395 222.172 359.585 222.172 358.636C222.172 357.693 222.291 356.888 222.53 356.22C222.771 355.55 223.118 355.038 223.57 354.686C224.024 354.331 224.57 354.153 225.206 354.153C225.842 354.153 226.386 354.331 226.838 354.686C227.293 355.038 227.639 355.55 227.878 356.22C228.119 356.888 228.24 357.693 228.24 358.636C228.24 359.585 228.121 360.395 227.882 361.065C227.644 361.733 227.298 362.243 226.847 362.595C226.395 362.945 225.848 363.119 225.206 363.119ZM225.206 362.182C225.842 362.182 226.337 361.875 226.689 361.261C227.041 360.648 227.217 359.773 227.217 358.636C227.217 357.881 227.136 357.237 226.975 356.706C226.815 356.175 226.585 355.77 226.284 355.491C225.986 355.213 225.627 355.074 225.206 355.074C224.575 355.074 224.082 355.385 223.727 356.007C223.372 356.626 223.195 357.503 223.195 358.636C223.195 359.392 223.274 360.034 223.433 360.562C223.592 361.091 223.821 361.493 224.119 361.768C224.421 362.044 224.783 362.182 225.206 362.182ZM229.655 361.21V360.341L233.49 354.273H234.121V355.619H233.695L230.797 360.205V360.273H235.962V361.21H229.655ZM233.763 363V360.946V360.541V354.273H234.769V363H233.763ZM240.661 353.864L237.848 364.312H236.928L239.741 353.864H240.661ZM244.683 363.119C244.041 363.119 243.494 362.945 243.042 362.595C242.59 362.243 242.245 361.733 242.006 361.065C241.768 360.395 241.649 359.585 241.649 358.636C241.649 357.693 241.768 356.888 242.006 356.22C242.248 355.55 242.595 355.038 243.046 354.686C243.501 354.331 244.046 354.153 244.683 354.153C245.319 354.153 245.863 354.331 246.315 354.686C246.769 355.038 247.116 355.55 247.354 356.22C247.596 356.888 247.717 357.693 247.717 358.636C247.717 359.585 247.597 360.395 247.359 361.065C247.12 361.733 246.775 362.243 246.323 362.595C245.872 362.945 245.325 363.119 244.683 363.119ZM244.683 362.182C245.319 362.182 245.813 361.875 246.166 361.261C246.518 360.648 246.694 359.773 246.694 358.636C246.694 357.881 246.613 357.237 246.451 356.706C246.292 356.175 246.062 355.77 245.761 355.491C245.462 355.213 245.103 355.074 244.683 355.074C244.052 355.074 243.559 355.385 243.204 356.007C242.849 356.626 242.671 357.503 242.671 358.636C242.671 359.392 242.751 360.034 242.91 360.562C243.069 361.091 243.298 361.493 243.596 361.768C243.897 362.044 244.259 362.182 244.683 362.182ZM252.285 363.119C251.722 363.119 251.221 363.023 250.781 362.83C250.343 362.636 249.995 362.368 249.737 362.024C249.481 361.678 249.342 361.276 249.319 360.818H250.393C250.416 361.099 250.512 361.342 250.683 361.547C250.853 361.749 251.076 361.905 251.352 362.016C251.627 362.126 251.933 362.182 252.268 362.182C252.643 362.182 252.975 362.116 253.265 361.986C253.555 361.855 253.782 361.673 253.947 361.44C254.112 361.207 254.194 360.938 254.194 360.631C254.194 360.31 254.114 360.027 253.955 359.783C253.796 359.536 253.563 359.342 253.256 359.203C252.95 359.064 252.575 358.994 252.131 358.994H251.433V358.057H252.131C252.478 358.057 252.782 357.994 253.043 357.869C253.308 357.744 253.514 357.568 253.661 357.341C253.812 357.114 253.887 356.847 253.887 356.54C253.887 356.244 253.822 355.987 253.691 355.768C253.56 355.55 253.376 355.379 253.137 355.257C252.901 355.135 252.623 355.074 252.302 355.074C252.001 355.074 251.717 355.129 251.45 355.24C251.185 355.348 250.97 355.506 250.802 355.713C250.634 355.918 250.543 356.165 250.529 356.455H249.506C249.524 355.997 249.661 355.597 249.92 355.253C250.178 354.906 250.516 354.636 250.934 354.443C251.354 354.25 251.816 354.153 252.319 354.153C252.859 354.153 253.322 354.263 253.708 354.482C254.095 354.697 254.391 354.983 254.599 355.338C254.806 355.693 254.91 356.077 254.91 356.489C254.91 356.98 254.781 357.399 254.522 357.746C254.266 358.092 253.918 358.332 253.478 358.466V358.534C254.029 358.625 254.46 358.859 254.769 359.237C255.079 359.612 255.234 360.077 255.234 360.631C255.234 361.105 255.104 361.531 254.846 361.909C254.59 362.284 254.241 362.58 253.798 362.795C253.354 363.011 252.85 363.119 252.285 363.119Z" fill="#09090B"/>
<path d="M279.194 363.119C278.552 363.119 278.005 362.945 277.553 362.595C277.101 362.243 276.756 361.733 276.517 361.065C276.279 360.395 276.16 359.585 276.16 358.636C276.16 357.693 276.279 356.888 276.517 356.22C276.759 355.55 277.106 355.038 277.557 354.686C278.012 354.331 278.557 354.153 279.194 354.153C279.83 354.153 280.374 354.331 280.826 354.686C281.28 355.038 281.627 355.55 281.865 356.22C282.107 356.888 282.228 357.693 282.228 358.636C282.228 359.585 282.108 360.395 281.87 361.065C281.631 361.733 281.286 362.243 280.834 362.595C280.383 362.945 279.836 363.119 279.194 363.119ZM279.194 362.182C279.83 362.182 280.324 361.875 280.677 361.261C281.029 360.648 281.205 359.773 281.205 358.636C281.205 357.881 281.124 357.237 280.962 356.706C280.803 356.175 280.573 355.77 280.272 355.491C279.973 355.213 279.614 355.074 279.194 355.074C278.563 355.074 278.07 355.385 277.715 356.007C277.36 356.626 277.182 357.503 277.182 358.636C277.182 359.392 277.262 360.034 277.421 360.562C277.58 361.091 277.809 361.493 278.107 361.768C278.408 362.044 278.77 362.182 279.194 362.182ZM286.574 363.119C286.074 363.119 285.624 363.02 285.223 362.821C284.823 362.622 284.502 362.349 284.26 362.003C284.019 361.656 283.887 361.261 283.864 360.818H284.887C284.927 361.213 285.106 361.54 285.424 361.798C285.745 362.054 286.128 362.182 286.574 362.182C286.932 362.182 287.25 362.098 287.529 361.93C287.81 361.763 288.03 361.533 288.189 361.24C288.351 360.945 288.432 360.611 288.432 360.239C288.432 359.858 288.348 359.518 288.181 359.22C288.016 358.919 287.789 358.682 287.499 358.509C287.209 358.335 286.878 358.247 286.506 358.244C286.239 358.241 285.965 358.283 285.684 358.368C285.402 358.45 285.171 358.557 284.989 358.688L284 358.568L284.529 354.273H289.063V355.21H285.415L285.108 357.784H285.16C285.338 357.642 285.563 357.524 285.833 357.43C286.103 357.337 286.384 357.29 286.677 357.29C287.211 357.29 287.687 357.418 288.104 357.673C288.525 357.926 288.854 358.273 289.093 358.713C289.334 359.153 289.455 359.656 289.455 360.222C289.455 360.778 289.33 361.276 289.08 361.713C288.833 362.148 288.492 362.491 288.057 362.744C287.623 362.994 287.128 363.119 286.574 363.119ZM294.25 353.864L291.438 364.312H290.517L293.33 353.864H294.25ZM298.272 363.119C297.63 363.119 297.083 362.945 296.631 362.595C296.179 362.243 295.834 361.733 295.596 361.065C295.357 360.395 295.238 359.585 295.238 358.636C295.238 357.693 295.357 356.888 295.596 356.22C295.837 355.55 296.184 355.038 296.635 354.686C297.09 354.331 297.635 354.153 298.272 354.153C298.908 354.153 299.452 354.331 299.904 354.686C300.358 355.038 300.705 355.55 300.944 356.22C301.185 356.888 301.306 357.693 301.306 358.636C301.306 359.585 301.187 360.395 300.948 361.065C300.709 361.733 300.364 362.243 299.912 362.595C299.461 362.945 298.914 363.119 298.272 363.119ZM298.272 362.182C298.908 362.182 299.402 361.875 299.755 361.261C300.107 360.648 300.283 359.773 300.283 358.636C300.283 357.881 300.202 357.237 300.04 356.706C299.881 356.175 299.651 355.77 299.35 355.491C299.052 355.213 298.692 355.074 298.272 355.074C297.641 355.074 297.148 355.385 296.793 356.007C296.438 356.626 296.26 357.503 296.26 358.636C296.26 359.392 296.34 360.034 296.499 360.562C296.658 361.091 296.887 361.493 297.185 361.768C297.486 362.044 297.848 362.182 298.272 362.182ZM305.874 363.119C305.312 363.119 304.81 363.023 304.37 362.83C303.932 362.636 303.584 362.368 303.326 362.024C303.07 361.678 302.931 361.276 302.908 360.818H303.982C304.005 361.099 304.101 361.342 304.272 361.547C304.442 361.749 304.665 361.905 304.941 362.016C305.216 362.126 305.522 362.182 305.857 362.182C306.232 362.182 306.564 362.116 306.854 361.986C307.144 361.855 307.371 361.673 307.536 361.44C307.701 361.207 307.783 360.938 307.783 360.631C307.783 360.31 307.704 360.027 307.544 359.783C307.385 359.536 307.152 359.342 306.846 359.203C306.539 359.064 306.164 358.994 305.721 358.994H305.022V358.057H305.721C306.067 358.057 306.371 357.994 306.633 357.869C306.897 357.744 307.103 357.568 307.25 357.341C307.401 357.114 307.476 356.847 307.476 356.54C307.476 356.244 307.411 355.987 307.28 355.768C307.15 355.55 306.965 355.379 306.726 355.257C306.49 355.135 306.212 355.074 305.891 355.074C305.59 355.074 305.306 355.129 305.039 355.24C304.775 355.348 304.559 355.506 304.391 355.713C304.223 355.918 304.133 356.165 304.118 356.455H303.096C303.113 355.997 303.25 355.597 303.509 355.253C303.767 354.906 304.106 354.636 304.523 354.443C304.944 354.25 305.405 354.153 305.908 354.153C306.448 354.153 306.911 354.263 307.297 354.482C307.684 354.697 307.981 354.983 308.188 355.338C308.395 355.693 308.499 356.077 308.499 356.489C308.499 356.98 308.37 357.399 308.111 357.746C307.856 358.092 307.508 358.332 307.067 358.466V358.534C307.618 358.625 308.049 358.859 308.358 359.237C308.668 359.612 308.823 360.077 308.823 360.631C308.823 361.105 308.694 361.531 308.435 361.909C308.179 362.284 307.83 362.58 307.387 362.795C306.944 363.011 306.439 363.119 305.874 363.119Z" fill="#09090B"/>
<path d="M333.181 363.119C332.539 363.119 331.992 362.945 331.541 362.595C331.089 362.243 330.744 361.733 330.505 361.065C330.266 360.395 330.147 359.585 330.147 358.636C330.147 357.693 330.266 356.888 330.505 356.22C330.746 355.55 331.093 355.038 331.545 354.686C331.999 354.331 332.545 354.153 333.181 354.153C333.818 354.153 334.362 354.331 334.813 354.686C335.268 355.038 335.614 355.55 335.853 356.22C336.095 356.888 336.215 357.693 336.215 358.636C336.215 359.585 336.096 360.395 335.857 361.065C335.619 361.733 335.273 362.243 334.822 362.595C334.37 362.945 333.823 363.119 333.181 363.119ZM333.181 362.182C333.818 362.182 334.312 361.875 334.664 361.261C335.016 360.648 335.193 359.773 335.193 358.636C335.193 357.881 335.112 357.237 334.95 356.706C334.791 356.175 334.56 355.77 334.259 355.491C333.961 355.213 333.602 355.074 333.181 355.074C332.55 355.074 332.058 355.385 331.702 356.007C331.347 356.626 331.17 357.503 331.17 358.636C331.17 359.392 331.249 360.034 331.408 360.562C331.568 361.091 331.796 361.493 332.095 361.768C332.396 362.044 332.758 362.182 333.181 362.182ZM340.732 363.119C340.374 363.114 340.016 363.045 339.658 362.915C339.3 362.784 338.974 362.564 338.678 362.254C338.383 361.942 338.146 361.52 337.967 360.989C337.788 360.455 337.698 359.784 337.698 358.977C337.698 358.205 337.771 357.52 337.916 356.923C338.06 356.324 338.271 355.82 338.546 355.411C338.822 354.999 339.154 354.686 339.543 354.473C339.935 354.26 340.377 354.153 340.869 354.153C341.357 354.153 341.792 354.251 342.173 354.447C342.556 354.641 342.869 354.911 343.11 355.257C343.352 355.604 343.508 356.003 343.579 356.455H342.539C342.443 356.062 342.255 355.737 341.977 355.479C341.698 355.22 341.329 355.091 340.869 355.091C340.193 355.091 339.66 355.385 339.271 355.973C338.884 356.561 338.69 357.386 338.687 358.449H338.755C338.914 358.207 339.103 358.001 339.322 357.831C339.543 357.658 339.788 357.524 340.055 357.43C340.322 357.337 340.604 357.29 340.903 357.29C341.403 357.29 341.86 357.415 342.275 357.665C342.69 357.912 343.022 358.254 343.272 358.692C343.522 359.126 343.647 359.625 343.647 360.188C343.647 360.727 343.526 361.222 343.285 361.67C343.043 362.116 342.704 362.472 342.266 362.736C341.832 362.997 341.32 363.125 340.732 363.119ZM340.732 362.182C341.09 362.182 341.411 362.092 341.695 361.913C341.982 361.734 342.208 361.494 342.373 361.193C342.541 360.892 342.624 360.557 342.624 360.188C342.624 359.827 342.543 359.499 342.381 359.203C342.222 358.905 342.002 358.668 341.721 358.491C341.443 358.315 341.124 358.227 340.766 358.227C340.496 358.227 340.245 358.281 340.012 358.389C339.779 358.494 339.575 358.639 339.398 358.824C339.225 359.009 339.089 359.22 338.989 359.459C338.89 359.695 338.84 359.943 338.84 360.205C338.84 360.551 338.921 360.875 339.083 361.176C339.248 361.477 339.472 361.72 339.756 361.905C340.043 362.089 340.369 362.182 340.732 362.182ZM348.425 353.864L345.613 364.312H344.692L347.505 353.864H348.425ZM352.447 363.119C351.805 363.119 351.258 362.945 350.806 362.595C350.354 362.243 350.009 361.733 349.771 361.065C349.532 360.395 349.413 359.585 349.413 358.636C349.413 357.693 349.532 356.888 349.771 356.22C350.012 355.55 350.359 355.038 350.81 354.686C351.265 354.331 351.81 354.153 352.447 354.153C353.083 354.153 353.627 354.331 354.079 354.686C354.533 355.038 354.88 355.55 355.119 356.22C355.36 356.888 355.481 357.693 355.481 358.636C355.481 359.585 355.362 360.395 355.123 361.065C354.884 361.733 354.539 362.243 354.087 362.595C353.636 362.945 353.089 363.119 352.447 363.119ZM352.447 362.182C353.083 362.182 353.577 361.875 353.93 361.261C354.282 360.648 354.458 359.773 354.458 358.636C354.458 357.881 354.377 357.237 354.215 356.706C354.056 356.175 353.826 355.77 353.525 355.491C353.227 355.213 352.867 355.074 352.447 355.074C351.816 355.074 351.323 355.385 350.968 356.007C350.613 356.626 350.435 357.503 350.435 358.636C350.435 359.392 350.515 360.034 350.674 360.562C350.833 361.091 351.062 361.493 351.36 361.768C351.661 362.044 352.023 362.182 352.447 362.182ZM360.049 363.119C359.487 363.119 358.985 363.023 358.545 362.83C358.107 362.636 357.759 362.368 357.501 362.024C357.245 361.678 357.106 361.276 357.083 360.818H358.157C358.18 361.099 358.276 361.342 358.447 361.547C358.617 361.749 358.84 361.905 359.116 362.016C359.391 362.126 359.697 362.182 360.032 362.182C360.407 362.182 360.739 362.116 361.029 361.986C361.319 361.855 361.546 361.673 361.711 361.44C361.876 361.207 361.958 360.938 361.958 360.631C361.958 360.31 361.879 360.027 361.72 359.783C361.56 359.536 361.327 359.342 361.021 359.203C360.714 359.064 360.339 358.994 359.896 358.994H359.197V358.057H359.896C360.242 358.057 360.546 357.994 360.808 357.869C361.072 357.744 361.278 357.568 361.425 357.341C361.576 357.114 361.651 356.847 361.651 356.54C361.651 356.244 361.586 355.987 361.455 355.768C361.325 355.55 361.14 355.379 360.901 355.257C360.666 355.135 360.387 355.074 360.066 355.074C359.765 355.074 359.481 355.129 359.214 355.24C358.95 355.348 358.734 355.506 358.566 355.713C358.398 355.918 358.308 356.165 358.293 356.455H357.271C357.288 355.997 357.425 355.597 357.684 355.253C357.943 354.906 358.281 354.636 358.698 354.443C359.119 354.25 359.58 354.153 360.083 354.153C360.623 354.153 361.086 354.263 361.472 354.482C361.859 354.697 362.156 354.983 362.363 355.338C362.57 355.693 362.674 356.077 362.674 356.489C362.674 356.98 362.545 357.399 362.286 357.746C362.031 358.092 361.683 358.332 361.242 358.466V358.534C361.793 358.625 362.224 358.859 362.533 359.237C362.843 359.612 362.998 360.077 362.998 360.631C362.998 361.105 362.869 361.531 362.61 361.909C362.354 362.284 362.005 362.58 361.562 362.795C361.119 363.011 360.614 363.119 360.049 363.119Z" fill="#09090B"/>
<path d="M387.669 363.119C387.027 363.119 386.48 362.945 386.028 362.595C385.576 362.243 385.231 361.733 384.993 361.065C384.754 360.395 384.635 359.585 384.635 358.636C384.635 357.693 384.754 356.888 384.993 356.22C385.234 355.55 385.581 355.038 386.032 354.686C386.487 354.331 387.032 354.153 387.669 354.153C388.305 354.153 388.849 354.331 389.301 354.686C389.755 355.038 390.102 355.55 390.341 356.22C390.582 356.888 390.703 357.693 390.703 358.636C390.703 359.585 390.583 360.395 390.345 361.065C390.106 361.733 389.761 362.243 389.309 362.595C388.858 362.945 388.311 363.119 387.669 363.119ZM387.669 362.182C388.305 362.182 388.799 361.875 389.152 361.261C389.504 360.648 389.68 359.773 389.68 358.636C389.68 357.881 389.599 357.237 389.437 356.706C389.278 356.175 389.048 355.77 388.747 355.491C388.449 355.213 388.089 355.074 387.669 355.074C387.038 355.074 386.545 355.385 386.19 356.007C385.835 356.626 385.657 357.503 385.657 358.636C385.657 359.392 385.737 360.034 385.896 360.562C386.055 361.091 386.284 361.493 386.582 361.768C386.883 362.044 387.245 362.182 387.669 362.182ZM392.36 363L396.264 355.278V355.21H391.764V354.273H397.355V355.261L393.468 363H392.36ZM402.045 353.864L399.233 364.312H398.313L401.125 353.864H402.045ZM406.067 363.119C405.425 363.119 404.878 362.945 404.427 362.595C403.975 362.243 403.63 361.733 403.391 361.065C403.152 360.395 403.033 359.585 403.033 358.636C403.033 357.693 403.152 356.888 403.391 356.22C403.632 355.55 403.979 355.038 404.431 354.686C404.885 354.331 405.431 354.153 406.067 354.153C406.704 354.153 407.248 354.331 407.699 354.686C408.154 355.038 408.5 355.55 408.739 356.22C408.98 356.888 409.101 357.693 409.101 358.636C409.101 359.585 408.982 360.395 408.743 361.065C408.505 361.733 408.159 362.243 407.708 362.595C407.256 362.945 406.709 363.119 406.067 363.119ZM406.067 362.182C406.704 362.182 407.198 361.875 407.55 361.261C407.902 360.648 408.079 359.773 408.079 358.636C408.079 357.881 407.998 357.237 407.836 356.706C407.677 356.175 407.446 355.77 407.145 355.491C406.847 355.213 406.488 355.074 406.067 355.074C405.436 355.074 404.944 355.385 404.588 356.007C404.233 356.626 404.056 357.503 404.056 358.636C404.056 359.392 404.135 360.034 404.294 360.562C404.454 361.091 404.682 361.493 404.98 361.768C405.282 362.044 405.644 362.182 406.067 362.182ZM413.669 363.119C413.107 363.119 412.605 363.023 412.165 362.83C411.728 362.636 411.38 362.368 411.121 362.024C410.865 361.678 410.726 361.276 410.704 360.818H411.777C411.8 361.099 411.897 361.342 412.067 361.547C412.238 361.749 412.461 361.905 412.736 362.016C413.012 362.126 413.317 362.182 413.652 362.182C414.027 362.182 414.36 362.116 414.65 361.986C414.939 361.855 415.167 361.673 415.331 361.44C415.496 361.207 415.579 360.938 415.579 360.631C415.579 360.31 415.499 360.027 415.34 359.783C415.181 359.536 414.948 359.342 414.641 359.203C414.334 359.064 413.959 358.994 413.516 358.994H412.817V358.057H413.516C413.863 358.057 414.167 357.994 414.428 357.869C414.692 357.744 414.898 357.568 415.046 357.341C415.196 357.114 415.272 356.847 415.272 356.54C415.272 356.244 415.206 355.987 415.076 355.768C414.945 355.55 414.76 355.379 414.522 355.257C414.286 355.135 414.007 355.074 413.686 355.074C413.385 355.074 413.101 355.129 412.834 355.24C412.57 355.348 412.354 355.506 412.186 355.713C412.019 355.918 411.928 356.165 411.914 356.455H410.891C410.908 355.997 411.046 355.597 411.304 355.253C411.563 354.906 411.901 354.636 412.319 354.443C412.739 354.25 413.201 354.153 413.704 354.153C414.243 354.153 414.706 354.263 415.093 354.482C415.479 354.697 415.776 354.983 415.983 355.338C416.191 355.693 416.294 356.077 416.294 356.489C416.294 356.98 416.165 357.399 415.907 357.746C415.651 358.092 415.303 358.332 414.863 358.466V358.534C415.414 358.625 415.844 358.859 416.154 359.237C416.463 359.612 416.618 360.077 416.618 360.631C416.618 361.105 416.489 361.531 416.23 361.909C415.975 362.284 415.625 362.58 415.182 362.795C414.739 363.011 414.235 363.119 413.669 363.119Z" fill="#09090B"/>
<path d="M441.156 363.119C440.514 363.119 439.967 362.945 439.516 362.595C439.064 362.243 438.719 361.733 438.48 361.065C438.241 360.395 438.122 359.585 438.122 358.636C438.122 357.693 438.241 356.888 438.48 356.22C438.722 355.55 439.068 355.038 439.52 354.686C439.974 354.331 440.52 354.153 441.156 354.153C441.793 354.153 442.337 354.331 442.788 354.686C443.243 355.038 443.589 355.55 443.828 356.22C444.07 356.888 444.19 357.693 444.19 358.636C444.19 359.585 444.071 360.395 443.832 361.065C443.594 361.733 443.249 362.243 442.797 362.595C442.345 362.945 441.798 363.119 441.156 363.119ZM441.156 362.182C441.793 362.182 442.287 361.875 442.639 361.261C442.991 360.648 443.168 359.773 443.168 358.636C443.168 357.881 443.087 357.237 442.925 356.706C442.766 356.175 442.536 355.77 442.234 355.491C441.936 355.213 441.577 355.074 441.156 355.074C440.526 355.074 440.033 355.385 439.678 356.007C439.322 356.626 439.145 357.503 439.145 358.636C439.145 359.392 439.224 360.034 439.384 360.562C439.543 361.091 439.771 361.493 440.07 361.768C440.371 362.044 440.733 362.182 441.156 362.182ZM448.605 363.119C448.02 363.119 447.503 363.016 447.054 362.808C446.608 362.598 446.26 362.31 446.01 361.943C445.76 361.574 445.636 361.153 445.639 360.682C445.636 360.312 445.709 359.972 445.857 359.659C446.004 359.344 446.206 359.081 446.462 358.871C446.72 358.658 447.009 358.523 447.327 358.466V358.415C446.909 358.307 446.577 358.072 446.33 357.712C446.082 357.348 445.96 356.935 445.963 356.472C445.96 356.028 446.072 355.632 446.3 355.283C446.527 354.933 446.839 354.658 447.237 354.456C447.638 354.254 448.094 354.153 448.605 354.153C449.111 354.153 449.563 354.254 449.96 354.456C450.358 354.658 450.67 354.933 450.898 355.283C451.128 355.632 451.244 356.028 451.247 356.472C451.244 356.935 451.118 357.348 450.868 357.712C450.621 358.072 450.293 358.307 449.884 358.415V358.466C450.199 358.523 450.483 358.658 450.736 358.871C450.989 359.081 451.19 359.344 451.341 359.659C451.491 359.972 451.568 360.312 451.571 360.682C451.568 361.153 451.44 361.574 451.188 361.943C450.938 362.31 450.589 362.598 450.143 362.808C449.7 363.016 449.188 363.119 448.605 363.119ZM448.605 362.182C449 362.182 449.341 362.118 449.628 361.99C449.915 361.862 450.136 361.682 450.293 361.449C450.449 361.216 450.528 360.943 450.531 360.631C450.528 360.301 450.443 360.01 450.276 359.757C450.108 359.504 449.879 359.305 449.589 359.161C449.303 359.016 448.974 358.943 448.605 358.943C448.233 358.943 447.901 359.016 447.608 359.161C447.318 359.305 447.089 359.504 446.922 359.757C446.757 360.01 446.676 360.301 446.679 360.631C446.676 360.943 446.751 361.216 446.905 361.449C447.061 361.682 447.284 361.862 447.574 361.99C447.864 362.118 448.207 362.182 448.605 362.182ZM448.605 358.04C448.918 358.04 449.195 357.977 449.436 357.852C449.68 357.727 449.872 357.553 450.011 357.328C450.151 357.104 450.222 356.841 450.224 356.54C450.222 356.244 450.152 355.987 450.016 355.768C449.879 355.547 449.69 355.376 449.449 355.257C449.207 355.135 448.926 355.074 448.605 355.074C448.278 355.074 447.993 355.135 447.749 355.257C447.504 355.376 447.315 355.547 447.182 355.768C447.048 355.987 446.983 356.244 446.986 356.54C446.983 356.841 447.05 357.104 447.186 357.328C447.325 357.553 447.517 357.727 447.761 357.852C448.006 357.977 448.287 358.04 448.605 358.04ZM456.306 353.864L453.494 364.312H452.574L455.386 353.864H456.306ZM460.328 363.119C459.686 363.119 459.139 362.945 458.688 362.595C458.236 362.243 457.891 361.733 457.652 361.065C457.413 360.395 457.294 359.585 457.294 358.636C457.294 357.693 457.413 356.888 457.652 356.22C457.893 355.55 458.24 355.038 458.692 354.686C459.146 354.331 459.692 354.153 460.328 354.153C460.964 354.153 461.509 354.331 461.96 354.686C462.415 355.038 462.761 355.55 463 356.22C463.241 356.888 463.362 357.693 463.362 358.636C463.362 359.585 463.243 360.395 463.004 361.065C462.766 361.733 462.42 362.243 461.969 362.595C461.517 362.945 460.97 363.119 460.328 363.119ZM460.328 362.182C460.964 362.182 461.459 361.875 461.811 361.261C462.163 360.648 462.339 359.773 462.339 358.636C462.339 357.881 462.259 357.237 462.097 356.706C461.938 356.175 461.707 355.77 461.406 355.491C461.108 355.213 460.749 355.074 460.328 355.074C459.697 355.074 459.205 355.385 458.849 356.007C458.494 356.626 458.317 357.503 458.317 358.636C458.317 359.392 458.396 360.034 458.555 360.562C458.714 361.091 458.943 361.493 459.241 361.768C459.543 362.044 459.905 362.182 460.328 362.182ZM467.93 363.119C467.368 363.119 466.866 363.023 466.426 362.83C465.989 362.636 465.641 362.368 465.382 362.024C465.126 361.678 464.987 361.276 464.964 360.818H466.038C466.061 361.099 466.158 361.342 466.328 361.547C466.499 361.749 466.722 361.905 466.997 362.016C467.273 362.126 467.578 362.182 467.913 362.182C468.288 362.182 468.621 362.116 468.911 361.986C469.2 361.855 469.428 361.673 469.592 361.44C469.757 361.207 469.839 360.938 469.839 360.631C469.839 360.31 469.76 360.027 469.601 359.783C469.442 359.536 469.209 359.342 468.902 359.203C468.595 359.064 468.22 358.994 467.777 358.994H467.078V358.057H467.777C468.124 358.057 468.428 357.994 468.689 357.869C468.953 357.744 469.159 357.568 469.307 357.341C469.457 357.114 469.533 356.847 469.533 356.54C469.533 356.244 469.467 355.987 469.337 355.768C469.206 355.55 469.021 355.379 468.783 355.257C468.547 355.135 468.268 355.074 467.947 355.074C467.646 355.074 467.362 355.129 467.095 355.24C466.831 355.348 466.615 355.506 466.447 355.713C466.28 355.918 466.189 356.165 466.175 356.455H465.152C465.169 355.997 465.307 355.597 465.565 355.253C465.824 354.906 466.162 354.636 466.58 354.443C467 354.25 467.462 354.153 467.964 354.153C468.504 354.153 468.967 354.263 469.354 354.482C469.74 354.697 470.037 354.983 470.244 355.338C470.452 355.693 470.555 356.077 470.555 356.489C470.555 356.98 470.426 357.399 470.168 357.746C469.912 358.092 469.564 358.332 469.124 358.466V358.534C469.675 358.625 470.105 358.859 470.415 359.237C470.724 359.612 470.879 360.077 470.879 360.631C470.879 361.105 470.75 361.531 470.491 361.909C470.236 362.284 469.886 362.58 469.443 362.795C469 363.011 468.496 363.119 467.93 363.119Z" fill="#09090B"/>
<path d="M495.144 363.119C494.502 363.119 493.955 362.945 493.503 362.595C493.051 362.243 492.706 361.733 492.467 361.065C492.229 360.395 492.109 359.585 492.109 358.636C492.109 357.693 492.229 356.888 492.467 356.22C492.709 355.55 493.055 355.038 493.507 354.686C493.962 354.331 494.507 354.153 495.144 354.153C495.78 354.153 496.324 354.331 496.776 354.686C497.23 355.038 497.577 355.55 497.815 356.22C498.057 356.888 498.178 357.693 498.178 358.636C498.178 359.585 498.058 360.395 497.82 361.065C497.581 361.733 497.236 362.243 496.784 362.595C496.332 362.945 495.786 363.119 495.144 363.119ZM495.144 362.182C495.78 362.182 496.274 361.875 496.627 361.261C496.979 360.648 497.155 359.773 497.155 358.636C497.155 357.881 497.074 357.237 496.912 356.706C496.753 356.175 496.523 355.77 496.222 355.491C495.923 355.213 495.564 355.074 495.144 355.074C494.513 355.074 494.02 355.385 493.665 356.007C493.31 356.626 493.132 357.503 493.132 358.636C493.132 359.392 493.212 360.034 493.371 360.562C493.53 361.091 493.759 361.493 494.057 361.768C494.358 362.044 494.72 362.182 495.144 362.182ZM502.592 363.119C502.007 363.119 501.49 363.016 501.041 362.808C500.595 362.598 500.247 362.31 499.997 361.943C499.747 361.574 499.624 361.153 499.627 360.682C499.624 360.312 499.696 359.972 499.844 359.659C499.992 359.344 500.193 359.081 500.449 358.871C500.707 358.658 500.996 358.523 501.314 358.466V358.415C500.896 358.307 500.564 358.072 500.317 357.712C500.07 357.348 499.948 356.935 499.95 356.472C499.948 356.028 500.06 355.632 500.287 355.283C500.514 354.933 500.827 354.658 501.225 354.456C501.625 354.254 502.081 354.153 502.592 354.153C503.098 354.153 503.55 354.254 503.948 354.456C504.345 354.658 504.658 354.933 504.885 355.283C505.115 355.632 505.232 356.028 505.234 356.472C505.232 356.935 505.105 357.348 504.855 357.712C504.608 358.072 504.28 358.307 503.871 358.415V358.466C504.186 358.523 504.47 358.658 504.723 358.871C504.976 359.081 505.178 359.344 505.328 359.659C505.479 359.972 505.555 360.312 505.558 360.682C505.555 361.153 505.428 361.574 505.175 361.943C504.925 362.31 504.577 362.598 504.131 362.808C503.688 363.016 503.175 363.119 502.592 363.119ZM502.592 362.182C502.987 362.182 503.328 362.118 503.615 361.99C503.902 361.862 504.124 361.682 504.28 361.449C504.436 361.216 504.516 360.943 504.519 360.631C504.516 360.301 504.43 360.01 504.263 359.757C504.095 359.504 503.867 359.305 503.577 359.161C503.29 359.016 502.962 358.943 502.592 358.943C502.22 358.943 501.888 359.016 501.595 359.161C501.305 359.305 501.077 359.504 500.909 359.757C500.744 360.01 500.663 360.301 500.666 360.631C500.663 360.943 500.739 361.216 500.892 361.449C501.048 361.682 501.271 361.862 501.561 361.99C501.851 362.118 502.195 362.182 502.592 362.182ZM502.592 358.04C502.905 358.04 503.182 357.977 503.423 357.852C503.668 357.727 503.859 357.553 503.999 357.328C504.138 357.104 504.209 356.841 504.212 356.54C504.209 356.244 504.139 355.987 504.003 355.768C503.867 355.547 503.678 355.376 503.436 355.257C503.195 355.135 502.913 355.074 502.592 355.074C502.266 355.074 501.98 355.135 501.736 355.257C501.492 355.376 501.303 355.547 501.169 355.768C501.036 355.987 500.97 356.244 500.973 356.54C500.97 356.841 501.037 357.104 501.173 357.328C501.313 357.553 501.504 357.727 501.749 357.852C501.993 357.977 502.274 358.04 502.592 358.04ZM510.294 353.864L507.481 364.312H506.561L509.373 353.864H510.294ZM514.315 363.119C513.673 363.119 513.127 362.945 512.675 362.595C512.223 362.243 511.878 361.733 511.639 361.065C511.401 360.395 511.281 359.585 511.281 358.636C511.281 357.693 511.401 356.888 511.639 356.22C511.881 355.55 512.227 355.038 512.679 354.686C513.134 354.331 513.679 354.153 514.315 354.153C514.952 354.153 515.496 354.331 515.948 354.686C516.402 355.038 516.749 355.55 516.987 356.22C517.229 356.888 517.35 357.693 517.35 358.636C517.35 359.585 517.23 360.395 516.992 361.065C516.753 361.733 516.408 362.243 515.956 362.595C515.504 362.945 514.957 363.119 514.315 363.119ZM514.315 362.182C514.952 362.182 515.446 361.875 515.798 361.261C516.151 360.648 516.327 359.773 516.327 358.636C516.327 357.881 516.246 357.237 516.084 356.706C515.925 356.175 515.695 355.77 515.394 355.491C515.095 355.213 514.736 355.074 514.315 355.074C513.685 355.074 513.192 355.385 512.837 356.007C512.482 356.626 512.304 357.503 512.304 358.636C512.304 359.392 512.384 360.034 512.543 360.562C512.702 361.091 512.93 361.493 513.229 361.768C513.53 362.044 513.892 362.182 514.315 362.182ZM521.918 363.119C521.355 363.119 520.854 363.023 520.413 362.83C519.976 362.636 519.628 362.368 519.369 362.024C519.114 361.678 518.975 361.276 518.952 360.818H520.026C520.048 361.099 520.145 361.342 520.315 361.547C520.486 361.749 520.709 361.905 520.984 362.016C521.26 362.126 521.565 362.182 521.901 362.182C522.276 362.182 522.608 362.116 522.898 361.986C523.188 361.855 523.415 361.673 523.58 361.44C523.744 361.207 523.827 360.938 523.827 360.631C523.827 360.31 523.747 360.027 523.588 359.783C523.429 359.536 523.196 359.342 522.889 359.203C522.582 359.064 522.207 358.994 521.764 358.994H521.065V358.057H521.764C522.111 358.057 522.415 357.994 522.676 357.869C522.94 357.744 523.146 357.568 523.294 357.341C523.445 357.114 523.52 356.847 523.52 356.54C523.52 356.244 523.455 355.987 523.324 355.768C523.193 355.55 523.009 355.379 522.77 355.257C522.534 355.135 522.256 355.074 521.935 355.074C521.634 355.074 521.35 355.129 521.082 355.24C520.818 355.348 520.602 355.506 520.435 355.713C520.267 355.918 520.176 356.165 520.162 356.455H519.139C519.156 355.997 519.294 355.597 519.553 355.253C519.811 354.906 520.149 354.636 520.567 354.443C520.987 354.25 521.449 354.153 521.952 354.153C522.492 354.153 522.955 354.263 523.341 354.482C523.727 354.697 524.024 354.983 524.232 355.338C524.439 355.693 524.543 356.077 524.543 356.489C524.543 356.98 524.413 357.399 524.155 357.746C523.899 358.092 523.551 358.332 523.111 358.466V358.534C523.662 358.625 524.092 358.859 524.402 359.237C524.712 359.612 524.867 360.077 524.867 360.631C524.867 361.105 524.737 361.531 524.479 361.909C524.223 362.284 523.874 362.58 523.43 362.795C522.987 363.011 522.483 363.119 521.918 363.119Z" fill="#09090B"/>
<path d="M549.131 363.119C548.489 363.119 547.942 362.945 547.49 362.595C547.039 362.243 546.694 361.733 546.455 361.065C546.216 360.395 546.097 359.585 546.097 358.636C546.097 357.693 546.216 356.888 546.455 356.22C546.696 355.55 547.043 355.038 547.495 354.686C547.949 354.331 548.495 354.153 549.131 354.153C549.767 354.153 550.312 354.331 550.763 354.686C551.218 355.038 551.564 355.55 551.803 356.22C552.044 356.888 552.165 357.693 552.165 358.636C552.165 359.585 552.046 360.395 551.807 361.065C551.569 361.733 551.223 362.243 550.772 362.595C550.32 362.945 549.773 363.119 549.131 363.119ZM549.131 362.182C549.767 362.182 550.262 361.875 550.614 361.261C550.966 360.648 551.142 359.773 551.142 358.636C551.142 357.881 551.062 357.237 550.9 356.706C550.74 356.175 550.51 355.77 550.209 355.491C549.911 355.213 549.552 355.074 549.131 355.074C548.5 355.074 548.008 355.385 547.652 356.007C547.297 356.626 547.12 357.503 547.12 358.636C547.12 359.392 547.199 360.034 547.358 360.562C547.517 361.091 547.746 361.493 548.044 361.768C548.346 362.044 548.708 362.182 549.131 362.182ZM556.563 354.153C556.921 354.156 557.279 354.224 557.637 354.358C557.995 354.491 558.321 354.713 558.617 355.023C558.912 355.33 559.15 355.749 559.329 356.28C559.508 356.811 559.597 357.477 559.597 358.278C559.597 359.054 559.523 359.743 559.375 360.345C559.231 360.945 559.02 361.45 558.745 361.862C558.472 362.274 558.14 362.587 557.748 362.8C557.358 363.013 556.918 363.119 556.427 363.119C555.938 363.119 555.502 363.023 555.118 362.83C554.738 362.634 554.425 362.362 554.181 362.016C553.939 361.666 553.785 361.261 553.716 360.801H554.756C554.85 361.202 555.036 361.533 555.314 361.794C555.596 362.053 555.966 362.182 556.427 362.182C557.1 362.182 557.631 361.888 558.02 361.3C558.412 360.712 558.608 359.881 558.608 358.807H558.54C558.381 359.045 558.192 359.251 557.973 359.425C557.755 359.598 557.512 359.732 557.245 359.825C556.978 359.919 556.694 359.966 556.392 359.966C555.892 359.966 555.434 359.842 555.016 359.595C554.601 359.345 554.269 359.003 554.019 358.568C553.772 358.131 553.648 357.631 553.648 357.068C553.648 356.534 553.767 356.045 554.006 355.602C554.248 355.156 554.586 354.801 555.02 354.537C555.458 354.273 555.972 354.145 556.563 354.153ZM556.563 355.091C556.205 355.091 555.883 355.18 555.596 355.359C555.312 355.536 555.086 355.774 554.918 356.075C554.753 356.374 554.671 356.705 554.671 357.068C554.671 357.432 554.75 357.763 554.91 358.061C555.071 358.357 555.292 358.592 555.57 358.768C555.851 358.942 556.171 359.028 556.529 359.028C556.799 359.028 557.05 358.976 557.283 358.871C557.516 358.763 557.719 358.616 557.892 358.432C558.069 358.244 558.206 358.033 558.306 357.797C558.405 357.558 558.455 357.31 558.455 357.051C558.455 356.71 558.373 356.391 558.208 356.092C558.046 355.794 557.821 355.553 557.535 355.368C557.25 355.183 556.927 355.091 556.563 355.091ZM564.375 353.864L561.563 364.312H560.642L563.455 353.864H564.375ZM568.397 363.119C567.755 363.119 567.208 362.945 566.756 362.595C566.304 362.243 565.959 361.733 565.721 361.065C565.482 360.395 565.363 359.585 565.363 358.636C565.363 357.693 565.482 356.888 565.721 356.22C565.962 355.55 566.309 355.038 566.76 354.686C567.215 354.331 567.76 354.153 568.397 354.153C569.033 354.153 569.577 354.331 570.029 354.686C570.483 355.038 570.83 355.55 571.069 356.22C571.31 356.888 571.431 357.693 571.431 358.636C571.431 359.585 571.312 360.395 571.073 361.065C570.834 361.733 570.489 362.243 570.037 362.595C569.586 362.945 569.039 363.119 568.397 363.119ZM568.397 362.182C569.033 362.182 569.527 361.875 569.88 361.261C570.232 360.648 570.408 359.773 570.408 358.636C570.408 357.881 570.327 357.237 570.165 356.706C570.006 356.175 569.776 355.77 569.475 355.491C569.177 355.213 568.817 355.074 568.397 355.074C567.766 355.074 567.273 355.385 566.918 356.007C566.563 356.626 566.385 357.503 566.385 358.636C566.385 359.392 566.465 360.034 566.624 360.562C566.783 361.091 567.012 361.493 567.31 361.768C567.611 362.044 567.973 362.182 568.397 362.182ZM575.999 363.119C575.437 363.119 574.935 363.023 574.495 362.83C574.057 362.636 573.709 362.368 573.451 362.024C573.195 361.678 573.056 361.276 573.033 360.818H574.107C574.13 361.099 574.226 361.342 574.397 361.547C574.567 361.749 574.79 361.905 575.066 362.016C575.341 362.126 575.647 362.182 575.982 362.182C576.357 362.182 576.689 362.116 576.979 361.986C577.269 361.855 577.496 361.673 577.661 361.44C577.826 361.207 577.908 360.938 577.908 360.631C577.908 360.31 577.829 360.027 577.669 359.783C577.51 359.536 577.277 359.342 576.971 359.203C576.664 359.064 576.289 358.994 575.846 358.994H575.147V358.057H575.846C576.192 358.057 576.496 357.994 576.758 357.869C577.022 357.744 577.228 357.568 577.375 357.341C577.526 357.114 577.601 356.847 577.601 356.54C577.601 356.244 577.536 355.987 577.405 355.768C577.275 355.55 577.09 355.379 576.851 355.257C576.615 355.135 576.337 355.074 576.016 355.074C575.715 355.074 575.431 355.129 575.164 355.24C574.9 355.348 574.684 355.506 574.516 355.713C574.348 355.918 574.258 356.165 574.243 356.455H573.221C573.238 355.997 573.375 355.597 573.634 355.253C573.892 354.906 574.231 354.636 574.648 354.443C575.069 354.25 575.53 354.153 576.033 354.153C576.573 354.153 577.036 354.263 577.422 354.482C577.809 354.697 578.106 354.983 578.313 355.338C578.52 355.693 578.624 356.077 578.624 356.489C578.624 356.98 578.495 357.399 578.236 357.746C577.981 358.092 577.633 358.332 577.192 358.466V358.534C577.743 358.625 578.174 358.859 578.483 359.237C578.793 359.612 578.948 360.077 578.948 360.631C578.948 361.105 578.819 361.531 578.56 361.909C578.304 362.284 577.955 362.58 577.512 362.795C577.069 363.011 576.564 363.119 575.999 363.119Z" fill="#09090B"/>
<path d="M604.34 354.273V363H603.283V355.381H603.232L601.102 356.795V355.722L603.283 354.273H604.34ZM609.697 363.119C609.055 363.119 608.508 362.945 608.056 362.595C607.604 362.243 607.259 361.733 607.021 361.065C606.782 360.395 606.663 359.585 606.663 358.636C606.663 357.693 606.782 356.888 607.021 356.22C607.262 355.55 607.609 355.038 608.06 354.686C608.515 354.331 609.06 354.153 609.697 354.153C610.333 354.153 610.877 354.331 611.329 354.686C611.783 355.038 612.13 355.55 612.369 356.22C612.61 356.888 612.731 357.693 612.731 358.636C612.731 359.585 612.612 360.395 612.373 361.065C612.134 361.733 611.789 362.243 611.337 362.595C610.886 362.945 610.339 363.119 609.697 363.119ZM609.697 362.182C610.333 362.182 610.827 361.875 611.18 361.261C611.532 360.648 611.708 359.773 611.708 358.636C611.708 357.881 611.627 357.237 611.465 356.706C611.306 356.175 611.076 355.77 610.775 355.491C610.477 355.213 610.117 355.074 609.697 355.074C609.066 355.074 608.573 355.385 608.218 356.007C607.863 356.626 607.685 357.503 607.685 358.636C607.685 359.392 607.765 360.034 607.924 360.562C608.083 361.091 608.312 361.493 608.61 361.768C608.911 362.044 609.273 362.182 609.697 362.182ZM617.452 353.864L614.64 364.312H613.72L616.532 353.864H617.452ZM621.474 363.119C620.832 363.119 620.285 362.945 619.833 362.595C619.382 362.243 619.037 361.733 618.798 361.065C618.559 360.395 618.44 359.585 618.44 358.636C618.44 357.693 618.559 356.888 618.798 356.22C619.039 355.55 619.386 355.038 619.838 354.686C620.292 354.331 620.838 354.153 621.474 354.153C622.11 354.153 622.655 354.331 623.106 354.686C623.561 355.038 623.907 355.55 624.146 356.22C624.387 356.888 624.508 357.693 624.508 358.636C624.508 359.585 624.389 360.395 624.15 361.065C623.912 361.733 623.566 362.243 623.115 362.595C622.663 362.945 622.116 363.119 621.474 363.119ZM621.474 362.182C622.11 362.182 622.605 361.875 622.957 361.261C623.309 360.648 623.485 359.773 623.485 358.636C623.485 357.881 623.405 357.237 623.243 356.706C623.083 356.175 622.853 355.77 622.552 355.491C622.254 355.213 621.895 355.074 621.474 355.074C620.843 355.074 620.351 355.385 619.995 356.007C619.64 356.626 619.463 357.503 619.463 358.636C619.463 359.392 619.542 360.034 619.701 360.562C619.86 361.091 620.089 361.493 620.387 361.768C620.689 362.044 621.051 362.182 621.474 362.182ZM629.076 363.119C628.514 363.119 628.012 363.023 627.572 362.83C627.135 362.636 626.787 362.368 626.528 362.024C626.272 361.678 626.133 361.276 626.11 360.818H627.184C627.207 361.099 627.304 361.342 627.474 361.547C627.645 361.749 627.868 361.905 628.143 362.016C628.419 362.126 628.724 362.182 629.059 362.182C629.434 362.182 629.767 362.116 630.057 361.986C630.346 361.855 630.574 361.673 630.738 361.44C630.903 361.207 630.985 360.938 630.985 360.631C630.985 360.31 630.906 360.027 630.747 359.783C630.588 359.536 630.355 359.342 630.048 359.203C629.741 359.064 629.366 358.994 628.923 358.994H628.224V358.057H628.923C629.27 358.057 629.574 357.994 629.835 357.869C630.099 357.744 630.305 357.568 630.453 357.341C630.603 357.114 630.679 356.847 630.679 356.54C630.679 356.244 630.613 355.987 630.483 355.768C630.352 355.55 630.167 355.379 629.929 355.257C629.693 355.135 629.414 355.074 629.093 355.074C628.792 355.074 628.508 355.129 628.241 355.24C627.977 355.348 627.761 355.506 627.593 355.713C627.426 355.918 627.335 356.165 627.321 356.455H626.298C626.315 355.997 626.453 355.597 626.711 355.253C626.97 354.906 627.308 354.636 627.726 354.443C628.146 354.25 628.608 354.153 629.11 354.153C629.65 354.153 630.113 354.263 630.5 354.482C630.886 354.697 631.183 354.983 631.39 355.338C631.598 355.693 631.701 356.077 631.701 356.489C631.701 356.98 631.572 357.399 631.314 357.746C631.058 358.092 630.71 358.332 630.27 358.466V358.534C630.821 358.625 631.251 358.859 631.561 359.237C631.87 359.612 632.025 360.077 632.025 360.631C632.025 361.105 631.896 361.531 631.637 361.909C631.382 362.284 631.032 362.58 630.589 362.795C630.146 363.011 629.642 363.119 629.076 363.119Z" fill="#09090B"/>
<path d="M659.328 354.273V363H658.271V355.381H658.22L656.089 356.795V355.722L658.271 354.273H659.328ZM664.906 354.273V363H663.849V355.381H663.798L661.667 356.795V355.722L663.849 354.273H664.906ZM670.518 353.864L667.706 364.312H666.785L669.598 353.864H670.518ZM674.54 363.119C673.898 363.119 673.351 362.945 672.899 362.595C672.447 362.243 672.102 361.733 671.864 361.065C671.625 360.395 671.506 359.585 671.506 358.636C671.506 357.693 671.625 356.888 671.864 356.22C672.105 355.55 672.452 355.038 672.903 354.686C673.358 354.331 673.903 354.153 674.54 354.153C675.176 354.153 675.72 354.331 676.172 354.686C676.626 355.038 676.973 355.55 677.212 356.22C677.453 356.888 677.574 357.693 677.574 358.636C677.574 359.585 677.455 360.395 677.216 361.065C676.977 361.733 676.632 362.243 676.18 362.595C675.729 362.945 675.182 363.119 674.54 363.119ZM674.54 362.182C675.176 362.182 675.67 361.875 676.023 361.261C676.375 360.648 676.551 359.773 676.551 358.636C676.551 357.881 676.47 357.237 676.308 356.706C676.149 356.175 675.919 355.77 675.618 355.491C675.32 355.213 674.96 355.074 674.54 355.074C673.909 355.074 673.416 355.385 673.061 356.007C672.706 356.626 672.528 357.503 672.528 358.636C672.528 359.392 672.608 360.034 672.767 360.562C672.926 361.091 673.155 361.493 673.453 361.768C673.754 362.044 674.116 362.182 674.54 362.182ZM682.142 363.119C681.58 363.119 681.078 363.023 680.638 362.83C680.2 362.636 679.852 362.368 679.594 362.024C679.338 361.678 679.199 361.276 679.176 360.818H680.25C680.273 361.099 680.369 361.342 680.54 361.547C680.71 361.749 680.933 361.905 681.209 362.016C681.484 362.126 681.79 362.182 682.125 362.182C682.5 362.182 682.832 362.116 683.122 361.986C683.412 361.855 683.639 361.673 683.804 361.44C683.969 361.207 684.051 360.938 684.051 360.631C684.051 360.31 683.972 360.027 683.813 359.783C683.653 359.536 683.42 359.342 683.114 359.203C682.807 359.064 682.432 358.994 681.989 358.994H681.29V358.057H681.989C682.335 358.057 682.639 357.994 682.901 357.869C683.165 357.744 683.371 357.568 683.518 357.341C683.669 357.114 683.744 356.847 683.744 356.54C683.744 356.244 683.679 355.987 683.548 355.768C683.418 355.55 683.233 355.379 682.994 355.257C682.759 355.135 682.48 355.074 682.159 355.074C681.858 355.074 681.574 355.129 681.307 355.24C681.043 355.348 680.827 355.506 680.659 355.713C680.491 355.918 680.401 356.165 680.386 356.455H679.364C679.381 355.997 679.518 355.597 679.777 355.253C680.036 354.906 680.374 354.636 680.791 354.443C681.212 354.25 681.673 354.153 682.176 354.153C682.716 354.153 683.179 354.263 683.565 354.482C683.952 354.697 684.249 354.983 684.456 355.338C684.663 355.693 684.767 356.077 684.767 356.489C684.767 356.98 684.638 357.399 684.379 357.746C684.124 358.092 683.776 358.332 683.335 358.466V358.534C683.886 358.625 684.317 358.859 684.626 359.237C684.936 359.612 685.091 360.077 685.091 360.631C685.091 361.105 684.962 361.531 684.703 361.909C684.447 362.284 684.098 362.58 683.655 362.795C683.212 363.011 682.707 363.119 682.142 363.119Z" fill="#09090B"/>
</svg>
