<svg width="346" height="309" viewBox="0 0 346 309" fill="none" xmlns="http://www.w3.org/2000/svg">
<g clip-path="url(#clip0_68_156)">
<path d="M39.6855 309L39.3844 308.888C29.1844 305.03 21.1931 296.87 17.5334 286.574C16.5419 283.712 15.9136 280.737 15.6634 277.718L15.6389 277.43L15.9226 277.481C19.31 278.091 22.866 278.427 24.4504 278.559L15.5616 272.662L15.5777 272.355C15.7161 269.476 17.5876 266.971 20.3044 266.029C23.0471 265.013 26.1301 265.773 28.091 267.947C28.9748 268.909 29.909 269.877 30.8124 270.813C33.917 274.031 37.1273 277.357 39.1572 281.284C42.2101 287.335 42.3758 294.445 39.6082 300.632L39.6855 309Z" fill="#F2F2F2"/>
<path d="M219.539 303.285L219.535 303.254C219.142 294.506 217.541 285.856 214.779 277.55L214.776 277.536C214.615 276.683 214.662 275.804 214.913 274.973C215.684 272.591 218.077 271.133 220.541 271.543C223.086 272.023 225.719 271.572 227.961 270.273C229.385 269.444 231.113 269.33 232.634 269.963C234.068 270.549 235.14 271.78 235.526 273.284C235.556 273.402 235.582 273.522 235.605 273.643C235.686 282.431 237.296 291.138 240.362 299.371L240.364 299.382C240.685 301.082 240.173 302.833 238.988 304.091C237.94 305.157 236.472 305.698 234.985 305.565C232.316 305.383 229.571 305.926 226.593 307.226C225.553 307.69 224.383 307.772 223.289 307.458C221.353 306.889 219.902 305.275 219.539 303.285Z" fill="#502694"/>
<path d="M134.217 183.128V297.994H214.475V183.128C214.478 181.432 213.377 179.933 211.761 179.432C211.39 179.31 211.001 179.249 210.611 179.253H138.093C135.956 179.249 134.221 180.982 134.217 183.125V183.128ZM165.538 222.597C165.582 217.852 169.453 214.042 174.185 214.085C178.855 214.128 182.631 217.914 182.674 222.597V235.924C182.651 240.669 178.797 244.496 174.065 244.474C169.365 244.452 165.56 240.637 165.538 235.924V222.597Z" fill="#F2F2F2"/>
<path d="M133.971 294.32V305.397C133.975 306.591 134.936 307.56 136.127 307.57H212.565C213.758 307.564 214.721 306.593 214.721 305.397V294.32H133.971Z" fill="#E6E6E6"/>
<path d="M7.95847 10.0687V219.797C7.96286 225.362 12.4613 229.872 18.0118 229.876H327.988C333.539 229.872 338.037 225.362 338.042 219.797V10.0687C338.028 4.50904 333.533 0.00705264 327.988 0H18.0118C12.4667 0.00708036 7.97167 4.50905 7.95847 10.0687Z" fill="#E6E6E6"/>
<path d="M325.402 7.27988H20.5977C17.6286 7.28636 15.2251 9.7013 15.2248 12.6782V217.209C15.2299 220.183 17.6324 222.591 20.5977 222.597H325.402C328.368 222.591 330.77 220.183 330.775 217.209V12.6782C330.775 9.70129 328.371 7.28636 325.402 7.27988ZM248.514 152.59C247.603 154.395 245.756 155.531 243.738 155.526L243.706 155.524C240.784 155.115 237.851 154.846 234.908 154.716C235.365 155.044 235.767 155.443 236.099 155.898C236.954 157.125 237.216 158.671 236.815 160.112C236.149 162.71 236.181 165.516 236.912 168.688C237.178 169.798 237.045 170.967 236.537 171.988C235.626 173.793 233.779 174.929 231.761 174.924L231.729 174.922C224.751 173.947 217.686 173.759 210.666 174.359C210.639 174.537 210.604 174.714 210.558 174.892C209.892 177.49 209.924 180.295 210.655 183.468C210.921 184.578 210.788 185.746 210.281 186.768C209.37 188.573 207.522 189.708 205.505 189.704L205.473 189.701C198.306 188.701 191.048 188.53 183.843 189.191C183.788 190.995 183.975 192.798 184.399 194.553C184.664 195.663 184.531 196.831 184.024 197.853C183.113 199.657 181.265 200.793 179.248 200.788L179.216 200.786C170.566 199.578 161.792 199.578 153.143 200.786H153.129C152.263 200.789 151.409 200.583 150.64 200.184C148.445 198.989 147.451 196.364 148.303 194.01C148.564 193.269 148.759 192.505 148.883 191.729C140.957 190.813 132.946 190.908 125.043 192.011H125.029C124.163 192.014 123.309 191.807 122.54 191.409C120.345 190.213 119.352 187.589 120.204 185.234C121.138 182.813 121.176 180.135 120.312 177.688C119.904 176.54 119.904 175.287 120.311 174.139C114.353 173.834 108.38 174.097 102.471 174.922H102.458C101.592 174.925 100.738 174.719 99.9685 174.32C97.7736 173.124 96.7803 170.5 97.632 168.145C98.5665 165.724 98.6048 163.046 97.7399 160.599C97.1875 159.044 97.3903 157.319 98.2883 155.936C99.1245 154.629 100.528 153.797 102.073 153.691C102.194 153.683 102.316 153.678 102.44 153.678C105.467 154.209 108.523 154.555 111.592 154.715C109.634 153.425 108.814 150.957 109.609 148.747C110.543 146.326 110.582 143.648 109.717 141.201C109.164 139.646 109.367 137.921 110.265 136.538C110.304 136.478 110.349 136.425 110.39 136.368C108.206 136.519 106.027 136.746 103.853 137.049H103.839C102.974 137.052 102.12 136.846 101.35 136.447C99.1555 135.252 98.1622 132.627 99.0139 130.273C99.9485 127.851 99.9868 125.174 99.1219 122.726C98.5694 121.171 98.7722 119.447 99.6702 118.063C100.506 116.757 101.91 115.924 103.455 115.818C103.576 115.81 103.698 115.806 103.821 115.806C107.462 116.445 111.143 116.816 114.837 116.918C113.895 115.556 113.663 113.822 114.215 112.26C115.15 109.838 115.188 107.161 114.323 104.714C113.771 103.158 113.974 101.434 114.872 100.05C115.708 98.7439 117.111 97.9112 118.656 97.8054C118.778 97.7973 118.9 97.793 119.023 97.793C122.103 98.3331 125.214 98.6823 128.337 98.8385C127.666 97.5647 127.556 96.0677 128.035 94.7093C128.969 92.2876 129.007 89.6103 128.143 87.1627C127.59 85.6077 127.793 83.8832 128.691 82.4997C129.527 81.1931 130.931 80.3604 132.476 80.2546C132.597 80.2465 132.719 80.2422 132.842 80.2422C136.467 80.8784 140.133 81.2495 143.811 81.3526C143.31 80.1663 143.269 78.8352 143.697 77.6203C144.631 75.1986 144.669 72.5214 143.805 70.0738C143.252 68.5188 143.455 66.7943 144.353 65.4107C145.189 64.1041 146.593 63.2715 148.137 63.1657C148.259 63.1576 148.381 63.1533 148.504 63.1533C157.137 64.6768 165.969 64.6779 174.602 63.1567H174.613C175.279 63.2943 175.966 63.2943 176.632 63.1567H176.643C185.276 64.6779 194.108 64.6768 202.741 63.1533C202.864 63.1533 202.986 63.1576 203.107 63.1657C204.652 63.2715 206.056 64.1041 206.892 65.4107C207.79 66.7943 207.993 68.5188 207.44 70.0738C206.575 72.5214 206.614 75.1986 207.548 77.6203C207.975 78.8352 207.935 80.1663 207.434 81.3526C211.112 81.2495 214.778 80.8784 218.403 80.2422C218.526 80.2422 218.648 80.2465 218.769 80.2546C220.314 80.3604 221.718 81.1931 222.554 82.4997C223.452 83.8832 223.655 85.6077 223.102 87.1627C222.237 89.6103 222.276 92.2876 223.21 94.7093C223.688 96.0677 223.579 97.5647 222.908 98.8385C226.031 98.6823 229.142 98.3331 232.222 97.793C232.345 97.793 232.467 97.7973 232.589 97.8054C234.133 97.9112 235.537 98.7439 236.373 100.05C237.271 101.434 237.474 103.158 236.922 104.714C236.057 107.161 236.095 109.838 237.03 112.26C237.583 113.826 237.349 115.564 236.401 116.927C236.812 117.239 237.176 117.608 237.481 118.025C238.336 119.252 238.598 120.798 238.197 122.24C237.531 124.838 237.563 127.643 238.294 130.816C238.56 131.926 238.427 133.094 237.919 134.116C237.734 134.479 237.508 134.821 237.246 135.134C239.402 134.944 241.553 134.66 243.699 134.284H243.709C245.435 134.277 247.059 135.102 248.076 136.499C248.93 137.727 249.193 139.273 248.792 140.714C248.126 143.312 248.158 146.117 248.889 149.29C249.154 150.4 249.022 151.568 248.514 152.59Z" fill="white"/>
<path d="M315.516 35.455H30.3116C29.6852 35.4412 29.1886 34.9208 29.2024 34.2928C29.2157 33.6842 29.7046 33.194 30.3116 33.1806H315.516C316.142 33.1945 316.639 33.7148 316.625 34.3429C316.612 34.9514 316.123 35.4416 315.516 35.455Z" fill="#E6E6E6"/>
<path d="M176.359 195.34L176.328 195.338C167.678 194.13 158.904 194.13 150.254 195.338H150.24C149.374 195.341 148.52 195.135 147.751 194.736C145.556 193.541 144.563 190.916 145.415 188.562C146.349 186.14 146.388 183.463 145.523 181.015C144.97 179.46 145.173 177.735 146.071 176.352C146.907 175.045 148.311 174.213 149.856 174.107C149.977 174.099 150.099 174.094 150.222 174.094C158.855 175.618 167.687 175.619 176.32 174.098H176.331C178.056 174.092 179.68 174.916 180.697 176.314C181.552 177.541 181.814 179.087 181.413 180.529C180.747 183.127 180.779 185.932 181.51 189.105C181.776 190.215 181.643 191.383 181.136 192.405C180.225 194.209 178.377 195.345 176.359 195.34Z" fill="#502694"/>
<path d="M202.958 150.056L196 144.283C190.782 147.025 182.842 157.973 182.842 157.973L164.525 171.182C162.325 171.287 160.627 173.16 160.732 175.365C160.836 177.571 162.705 179.274 164.904 179.169C166.332 179.1 167.614 178.272 168.265 176.996L193.152 163.81L202.958 150.056Z" fill="#FFB8B8"/>
<path d="M214.698 128.082C218.714 131.493 219.213 137.521 215.811 141.548C215.43 141.999 215.008 142.414 214.551 142.787L210.126 146.394C210.126 146.394 199.088 162.325 193.343 164.173L178.594 171.899L171.943 165.213L185.31 154.291C185.31 154.291 191.459 148.46 192.074 144.192C192.451 141.578 196.864 134.457 201.286 129.176C204.681 125.161 210.678 124.666 214.683 128.069L214.698 128.082Z" fill="#3F3D56"/>
<path d="M200.398 300.983L194.112 300.983L191.121 276.67L200.399 276.671L200.398 300.983Z" fill="#FFB6B6"/>
<path d="M200.619 307.558L181.288 307.558V307.312C181.288 303.146 184.657 299.768 188.812 299.768L192.344 297.082L198.932 299.769L200.62 299.769L200.619 307.558Z" fill="#2F2E41"/>
<path d="M248.298 267.807L245.321 273.359L222.547 264.487L226.941 256.294L248.298 267.807Z" fill="#FFB6B6"/>
<path d="M254.179 270.725L245.024 287.797L244.809 287.681C241.149 285.708 239.777 281.133 241.744 277.464L241.745 277.463L241.057 273.073L246.537 268.527L247.336 267.036L254.179 270.725Z" fill="#2F2E41"/>
<path d="M188.513 189.646L182.964 234.151L185.738 249.071L235.674 271.006L238.449 261.966C225.684 254.135 212.039 242.283 203.442 241.412C203.442 241.412 202.729 233.514 208.888 228.639C210.131 227.656 209.859 226.326 210.361 225.12C210.707 224.29 212.082 223.427 212.434 222.576C212.89 221.473 212.326 220.377 212.784 219.257C213.042 218.627 214.02 218.587 214.277 217.957C214.714 216.881 214.427 215.216 214.854 214.154C215.764 211.883 216.64 209.663 217.439 207.582C219.927 201.103 221.678 195.97 221.457 194.861C220.763 191.384 188.513 189.646 188.513 189.646Z" fill="#2F2E41"/>
<path d="M187.557 234.022L184.654 252.816L191.98 291.172H201.69C205.179 278.285 205.358 261.346 202.037 247.015L187.557 234.022Z" fill="#2F2E41"/>
<path d="M193.795 135.27L198.271 127.449L203.077 123.584L212.093 122.193L214.598 124.124C223.613 137.938 226.975 154.703 223.986 170.938L223.282 174.759L222.835 177.185L223.029 180.084L221.524 184.305L221.731 187.396L221.842 189.047L221.952 190.704L222.107 193.016C222.385 194.336 220.989 194.162 221.186 195.326C221.533 197.369 223.088 200.396 220.725 200.406L196.311 195.326C190.109 195.351 184.334 187.936 190.323 181.932L193.795 135.27Z" fill="#3F3D56"/>
<path d="M205.223 120.014C211.771 120.014 217.078 114.692 217.078 108.128C217.078 101.563 211.771 96.2408 205.223 96.2408C198.675 96.2408 193.368 101.563 193.368 108.128C193.368 114.692 198.675 120.014 205.223 120.014Z" fill="#FFB8B8"/>
<path d="M205.424 119.677C207.158 119.704 208.892 119.582 210.606 119.313C212.305 118.967 216.106 116.175 217.166 114.494C217.953 113.245 218.456 111.296 218.74 109.88C219.513 106.092 218.647 102.152 216.358 99.0401C215.923 98.3963 215.323 97.8825 214.62 97.5529C214.558 97.5285 214.494 97.5068 214.429 97.4884C213.406 97.2184 212.486 96.6478 211.788 95.85C211.653 95.6886 211.506 95.5372 211.349 95.397C210.561 94.7297 209.626 94.2591 208.621 94.0235C206.999 93.5883 204.652 94.0203 201.645 95.3087C200.135 95.956 198.482 95.7217 197.211 95.4453C197.066 95.4172 196.917 95.4684 196.82 95.5798C196.279 96.0888 195.566 96.3737 194.824 96.3773C194.37 96.3973 193.894 97.028 193.317 97.8504C193.187 98.0371 193.034 98.255 192.924 98.3875L192.909 98.1329L192.652 98.417C191.33 99.878 191.44 102.137 192.897 103.463C193.289 103.819 193.755 104.083 194.261 104.236C194.718 104.358 195.186 104.433 195.658 104.46C195.944 104.486 196.24 104.512 196.523 104.562C198.374 104.942 199.89 106.269 200.515 108.056C200.777 108.788 201.581 109.169 202.311 108.907C202.426 108.865 202.535 108.809 202.635 108.74C203.234 108.272 204.024 108.128 204.75 108.354C205.059 108.526 205.299 108.8 205.431 109.128C205.591 109.495 205.856 109.805 206.193 110.02C207.344 110.615 207.423 113.251 207.01 115.449C206.611 117.568 205.823 119.101 205.094 119.176C204.532 119.235 204.468 119.275 204.427 119.374L204.391 119.463L204.454 119.547C204.764 119.659 205.095 119.704 205.424 119.677Z" fill="#2F2E41"/>
<path d="M181.427 112.667L181.395 112.665C172.745 111.456 163.971 111.456 155.321 112.665H155.307C154.441 112.668 153.588 112.461 152.818 112.062C150.623 110.867 149.63 108.242 150.482 105.888C151.416 103.466 151.455 100.789 150.59 98.3416C150.037 96.7865 150.24 95.0621 151.138 93.6785C151.974 92.3719 153.378 91.5393 154.923 91.4335C155.044 91.4254 155.166 91.4211 155.289 91.4211C163.922 92.9446 172.754 92.9457 181.387 91.4245H181.398C183.123 91.4184 184.747 92.2425 185.764 93.6404C186.619 94.8677 186.881 96.4136 186.48 97.8551C185.814 100.453 185.846 103.258 186.577 106.431C186.843 107.541 186.71 108.709 186.203 109.731C185.292 111.536 183.444 112.672 181.427 112.667Z" fill="#502694"/>
<path d="M192.513 140.663L197.419 133.059C194.093 128.184 182.32 121.557 182.32 121.557L167.096 104.861C166.735 102.683 164.681 101.21 162.509 101.572C160.336 101.934 158.868 103.994 159.229 106.172C159.463 107.586 160.434 108.765 161.774 109.264L177.744 132.506L192.513 140.663Z" fill="#FFB8B8"/>
<path d="M215.651 149.785C212.742 154.183 206.828 155.384 202.442 152.467C201.951 152.141 201.491 151.769 201.068 151.357L196.978 147.372C196.978 147.372 179.835 138.397 177.333 132.892L166.1 116.918L173.632 110.106L186.723 122.037C186.723 122.037 192.75 129.025 197.05 129.139C199.683 129.209 207.252 132.771 213 136.558C217.373 139.469 218.565 145.383 215.662 149.768L215.651 149.785Z" fill="#3F3D56"/>
<path d="M101.452 307.489L101.42 307.487C92.7706 306.279 83.996 306.279 75.3466 307.487H75.3327C74.4668 307.49 73.6129 307.284 72.8437 306.885C70.6488 305.69 69.6555 303.065 70.5072 300.711C71.4417 298.289 71.48 295.612 70.6151 293.164C70.0627 291.609 70.2655 289.884 71.1635 288.501C71.9997 287.194 73.4033 286.362 74.9481 286.256C75.0695 286.248 75.1914 286.243 75.3147 286.243C83.9474 287.767 92.7792 287.768 101.412 286.247H101.423C103.149 286.241 104.773 287.065 105.79 288.463C106.644 289.69 106.907 291.236 106.505 292.678C105.84 295.276 105.871 298.081 106.603 301.254C106.868 302.364 106.735 303.532 106.228 304.554C105.317 306.358 103.469 307.494 101.452 307.489Z" fill="#502694"/>
<path d="M108.822 288.091L108.79 288.089C100.141 286.88 91.3663 286.88 82.7169 288.089H82.703C81.8371 288.092 80.9832 287.885 80.214 287.487C78.0191 286.291 77.0258 283.667 77.8775 281.312C78.812 278.891 78.8503 276.213 77.9854 273.766C77.433 272.211 77.6358 270.486 78.5338 269.103C79.37 267.796 80.7736 266.963 82.3184 266.858C82.4398 266.85 82.5617 266.845 82.685 266.845C91.3177 268.369 100.149 268.37 108.783 266.849H108.793C110.519 266.843 112.143 267.667 113.16 269.065C114.014 270.292 114.277 271.838 113.876 273.279C113.21 275.877 113.241 278.683 113.973 281.855C114.238 282.965 114.106 284.134 113.598 285.155C112.687 286.96 110.839 288.096 108.822 288.091Z" fill="#502694"/>
<path d="M44.3258 293.379L44.3456 293.354C50.1902 286.848 55.1068 279.561 58.955 271.701L58.9628 271.689C59.4453 270.968 60.0944 270.375 60.8549 269.96C63.0721 268.807 65.797 269.452 67.2646 271.479C68.7415 273.612 70.9317 275.144 73.4382 275.797C75.0324 276.209 76.3433 277.344 76.9831 278.865C77.5939 280.292 77.4953 281.924 76.7171 283.266C76.6558 283.371 76.591 283.475 76.5219 283.577C70.4263 289.893 65.4768 297.227 61.8961 305.249L61.8901 305.258C60.9281 306.694 59.3374 307.581 57.6128 307.642C56.1202 307.664 54.6961 307.016 53.73 305.875C51.9569 303.867 49.6218 302.321 46.5909 301.15C45.5253 300.749 44.6346 299.984 44.0748 298.99C43.0944 297.222 43.1915 295.052 44.3258 293.379Z" fill="#502694"/>
<path d="M345.454 308.194L0.545624 308.336C0.242708 308.334 -0.00157696 308.086 7.6659e-06 307.783C0.00157386 307.481 0.244942 307.237 0.545624 307.236L345.454 307.094C345.757 307.095 346.002 307.343 346 307.647C345.998 307.948 345.755 308.192 345.454 308.194Z" fill="#CACACA"/>
<path d="M73.8192 24.8981C75.9706 24.8981 77.7147 23.1105 77.7147 20.9053C77.7147 18.7001 75.9706 16.9125 73.8192 16.9125C71.6678 16.9125 69.9237 18.7001 69.9237 20.9053C69.9237 23.1105 71.6678 24.8981 73.8192 24.8981Z" fill="#3F3D56"/>
<path d="M87.2764 24.8981C89.4278 24.8981 91.1719 23.1105 91.1719 20.9053C91.1719 18.7001 89.4278 16.9125 87.2764 16.9125C85.125 16.9125 83.3809 18.7001 83.3809 20.9053C83.3809 23.1105 85.125 24.8981 87.2764 24.8981Z" fill="#3F3D56"/>
<path d="M100.734 24.8981C102.885 24.8981 104.629 23.1105 104.629 20.9053C104.629 18.7001 102.885 16.9125 100.734 16.9125C98.5822 16.9125 96.8381 18.7001 96.8381 20.9053C96.8381 23.1105 98.5822 24.8981 100.734 24.8981Z" fill="#3F3D56"/>
<path d="M116.078 24.0611C115.959 24.0611 115.839 24.0147 115.749 23.9222L113.121 21.2282C112.945 21.0486 112.945 20.7618 113.121 20.5823L115.749 17.8884C115.927 17.7062 116.219 17.7033 116.4 17.8812C116.582 18.0596 116.586 18.3521 116.408 18.5343L114.094 20.9052L116.408 23.2763C116.586 23.4585 116.582 23.751 116.4 23.9294C116.311 24.0174 116.195 24.0611 116.078 24.0611Z" fill="#3F3D56"/>
<path d="M120.495 24.0611C120.379 24.0611 120.263 24.0174 120.173 23.9294C119.991 23.751 119.988 23.4588 120.166 23.2763L122.479 20.9052L120.166 18.5343C119.988 18.3521 119.991 18.0596 120.173 17.8812C120.355 17.7026 120.647 17.706 120.825 17.8884L123.453 20.5823C123.628 20.7618 123.628 21.0486 123.453 21.2282L120.825 23.9222C120.734 24.0147 120.615 24.0611 120.495 24.0611Z" fill="#3F3D56"/>
<path d="M258.003 17.3748H253.115C252.558 17.3748 252.106 17.8274 252.106 18.3862V23.2912C252.106 23.8501 252.558 24.3027 253.115 24.3027H258.003C258.56 24.3027 259.016 23.8501 259.016 23.2912V18.3862C259.016 17.8274 258.56 17.3748 258.003 17.3748Z" fill="#3F3D56"/>
<path d="M246.026 17.3748H241.138C240.581 17.3748 240.13 17.8274 240.13 18.3862V23.2912C240.13 23.8501 240.581 24.3027 241.138 24.3027H246.026C246.583 24.3027 247.039 23.8501 247.039 23.2912V18.3862C247.039 17.8274 246.583 17.3748 246.026 17.3748Z" fill="#3F3D56"/>
<path d="M269.288 17.6057H264.401C263.844 17.6057 263.392 18.0583 263.392 18.6172V23.5221C263.392 24.081 263.844 24.5336 264.401 24.5336H269.288C269.846 24.5336 270.302 24.081 270.302 23.5221V18.6172C270.302 18.0583 269.846 17.6057 269.288 17.6057Z" fill="#3F3D56"/>
<path d="M195.621 19.4716H156.554C155.872 19.4716 155.324 20.0258 155.324 20.7048C155.324 21.3837 155.872 21.938 156.554 21.938H195.621C196.298 21.938 196.851 21.3837 196.851 20.7048C196.851 20.0259 196.298 19.4716 195.621 19.4716Z" fill="#3F3D56"/>
</g>
<defs>
<clipPath id="clip0_68_156">
<rect width="346" height="309" fill="white"/>
</clipPath>
</defs>
</svg>
