<svg width="28" height="28" viewBox="0 0 28 28" fill="none" xmlns="http://www.w3.org/2000/svg">
<path d="M0 7.36842C0 3.29895 3.29895 0 7.36842 0H20.6316C24.701 0 28 3.29895 28 7.36842V20.6316C28 24.701 24.701 28 20.6316 28H7.36842C3.29895 28 0 24.701 0 20.6316V7.36842Z" fill="#502694"/>
<g clip-path="url(#clip0_218_267)">
<path d="M21.9109 11.0625C22.583 12.8677 22.6172 14.8485 22.0077 16.6758C21.3983 18.5031 20.182 20.0669 18.5609 21.1073C16.9398 22.1477 15.0115 22.6021 13.0964 22.395C11.1813 22.1879 9.39475 21.3317 8.03357 19.9687C6.50454 18.4448 5.61783 16.3927 5.5559 14.2347C5.49398 12.0768 6.26155 9.97723 7.70066 8.36806C9.13977 6.7589 11.1409 5.76256 13.2924 5.58408C15.4438 5.4056 17.5818 6.05856 19.2664 7.40858L20.8367 5.83749C20.9239 5.75028 21.0274 5.68111 21.1414 5.63391C21.2553 5.58672 21.3774 5.56243 21.5008 5.56243C21.6241 5.56243 21.7462 5.58672 21.8601 5.63391C21.9741 5.68111 22.0776 5.75028 22.1648 5.83749C22.252 5.9247 22.3212 6.02823 22.3684 6.14217C22.4156 6.25611 22.4399 6.37823 22.4399 6.50155C22.4399 6.62488 22.4156 6.747 22.3684 6.86094C22.3212 6.97488 22.252 7.07841 22.1648 7.16562L14.6648 14.6656C14.5776 14.7528 14.4741 14.822 14.3601 14.8692C14.2462 14.9164 14.1241 14.9407 14.0008 14.9407C13.8774 14.9407 13.7553 14.9164 13.6414 14.8692C13.5274 14.822 13.4239 14.7528 13.3367 14.6656C13.2495 14.5784 13.1803 14.4749 13.1331 14.3609C13.0859 14.247 13.0616 14.1249 13.0616 14.0016C13.0616 13.8782 13.0859 13.7561 13.1331 13.6422C13.1803 13.5282 13.2495 13.4247 13.3367 13.3375L15.2117 11.4625C14.6832 11.21 14.0891 11.1288 13.5123 11.2302C12.9355 11.3316 12.4047 11.6105 11.994 12.0281C11.5834 12.4457 11.3133 12.981 11.2215 13.5594C11.1297 14.1379 11.2208 14.7305 11.482 15.2547C11.7432 15.7789 12.1616 16.2085 12.6787 16.4834C13.1958 16.7584 13.7859 16.8651 14.3665 16.7886C14.9472 16.7122 15.4895 16.4563 15.9177 16.0568C16.346 15.6573 16.6388 15.1341 16.7554 14.5601C16.8046 14.3164 16.9485 14.1021 17.1556 13.9644C17.3627 13.8268 17.616 13.7771 17.8597 13.8262C18.1035 13.8753 18.3178 14.0192 18.4554 14.2263C18.5931 14.4334 18.6428 14.6867 18.5937 14.9305C18.394 15.9142 17.8838 16.8078 17.1382 17.4799C16.3926 18.1519 15.4509 18.5668 14.4518 18.6636C13.4527 18.7603 12.4489 18.5338 11.5881 18.0174C10.7274 17.5009 10.0552 16.7218 9.67044 15.7946C9.28569 14.8675 9.20871 13.8414 9.45084 12.8672C9.69296 11.8931 10.2414 11.0224 11.0154 10.3833C11.7895 9.74417 12.7483 9.37043 13.7506 9.31704C14.753 9.26365 15.746 9.53344 16.5836 10.0867L17.9297 8.7453C16.6652 7.80097 15.1028 7.34393 13.5288 7.45793C11.9547 7.57194 10.4745 8.24936 9.3593 9.36605C8.24412 10.4827 7.56871 11.9639 7.45684 13.5381C7.34497 15.1123 7.80413 16.6741 8.75018 17.9372C9.69623 19.2004 11.0658 20.0804 12.6079 20.4158C14.15 20.7513 15.7613 20.5198 17.1466 19.7638C18.5319 19.0077 19.5984 17.7778 20.1505 16.2994C20.7027 14.821 20.7036 13.1931 20.1531 11.7141C20.1093 11.5984 20.0888 11.4753 20.0927 11.3517C20.0967 11.2281 20.1251 11.1065 20.1763 10.9939C20.2274 10.8813 20.3004 10.78 20.3909 10.6957C20.4814 10.6114 20.5876 10.5459 20.7036 10.5029C20.8195 10.4599 20.9428 10.4402 21.0664 10.445C21.1899 10.4499 21.3113 10.4791 21.4235 10.531C21.5358 10.583 21.6366 10.6566 21.7202 10.7477C21.8039 10.8388 21.8687 10.9455 21.9109 11.0617V11.0625Z" fill="white"/>
</g>
<defs>
<clipPath id="clip0_218_267">
<rect width="20" height="20" fill="white" transform="translate(4 4)"/>
</clipPath>
</defs>
</svg>
