<svg width="20" height="20" viewBox="0 0 20 20" fill="none" xmlns="http://www.w3.org/2000/svg">
<g clip-path="url(#clip0_68_92)">
<path d="M20.0001 10.2217C20.0122 9.53423 19.9398 8.84784 19.7845 8.17732H10.2042V11.8884H15.8277C15.7212 12.5391 15.4815 13.1619 15.123 13.7195C14.7645 14.277 14.2946 14.7578 13.7416 15.1328L13.722 15.2571L16.7513 17.5568L16.961 17.5773C18.8883 15.8328 19.9997 13.2661 19.9997 10.2217" fill="#4285F4"/>
<path d="M10.2042 20C12.9592 20 15.2721 19.111 16.9616 17.5777L13.7416 15.1331C12.88 15.7222 11.7235 16.1333 10.2042 16.1333C8.91383 16.1259 7.65861 15.7205 6.61662 14.9746C5.57462 14.2287 4.79877 13.1801 4.39914 11.9777L4.27955 11.9877L1.12972 14.3766L1.08855 14.4888C1.93687 16.1456 3.23878 17.5386 4.84867 18.5119C6.45857 19.4852 8.31299 20.0004 10.2046 20" fill="#34A853"/>
<path d="M4.39913 11.9777C4.17594 11.3412 4.06077 10.6731 4.05821 10C4.06232 9.32805 4.17324 8.66081 4.38697 8.0223L4.38129 7.88974L1.19283 5.46246L1.08854 5.51106C0.3729 6.90348 0.000137329 8.44086 0.000137329 9.99992C0.000137329 11.559 0.3729 13.0964 1.08854 14.4888L4.39913 11.9777Z" fill="#FBBC05"/>
<path d="M10.2042 3.86667C11.6663 3.84442 13.0804 4.37807 14.1497 5.35562L17.0296 2.6C15.1826 0.901886 12.7366 -0.0298474 10.2042 1.36293e-06C8.31259 -0.000439687 6.45818 0.514771 4.84828 1.48802C3.23839 2.46128 1.93647 3.8542 1.08812 5.51105L4.38773 8.02229C4.7913 6.82009 5.56972 5.77235 6.61325 5.02679C7.65678 4.28122 8.91278 3.87545 10.2042 3.86667Z" fill="#EB4335"/>
</g>
<defs>
<clipPath id="clip0_68_92">
<rect width="20" height="20" fill="white"/>
</clipPath>
</defs>
</svg>
