<svg width="37" height="34" viewBox="0 0 37 34" fill="none" xmlns="http://www.w3.org/2000/svg">
<path d="M35.7935 17C35.7935 26.2408 27.9734 33.75 18.3043 33.75C8.6352 33.75 0.815186 26.2408 0.815186 17C0.815186 7.75915 8.6352 0.25 18.3043 0.25C27.9734 0.25 35.7935 7.75915 35.7935 17Z" fill="#EFF4FB" stroke="#E2E8F0" stroke-width="0.5"/>
<path d="M25.8174 22.9344L25.2305 22.0625C25.1131 21.8937 25.0544 21.725 25.0544 21.5281V15.6781C25.0544 14.0187 24.3207 12.4719 22.9707 11.3187C21.8848 10.3906 20.4761 9.79999 18.9794 9.68749V9.12499C18.9794 8.78749 18.6859 8.47812 18.3044 8.47812C17.9522 8.47812 17.6294 8.75937 17.6294 9.12499V9.65937C17.5707 9.65937 17.512 9.65937 17.4533 9.68749C14.049 10.0531 11.4957 12.6687 11.4957 15.7906V21.5281C11.4664 21.8094 11.4077 21.95 11.349 22.0344L10.7914 22.9344C10.6153 23.2156 10.6153 23.5531 10.7914 23.8344C10.9675 24.0875 11.2609 24.2562 11.5838 24.2562H17.6588V24.875C17.6588 25.2125 17.9522 25.5219 18.3338 25.5219C18.6859 25.5219 19.0088 25.2406 19.0088 24.875V24.2562H25.0544C25.3772 24.2562 25.6707 24.0875 25.8468 23.8344C26.0229 23.5531 26.0229 23.2156 25.8174 22.9344ZM12.2881 22.9906L12.4935 22.6531C12.6696 22.3719 12.7577 22.0344 12.8164 21.6406V15.7906C12.8164 13.3156 14.8707 11.2344 17.6001 10.9531C19.2729 10.7844 20.9164 11.2625 22.1196 12.275C23.1761 13.175 23.7631 14.3844 23.7631 15.6781V21.5281C23.7631 21.95 23.8805 22.3437 24.1446 22.7375L24.3207 22.9906H12.2881Z" fill="#64748B"/>
</svg>
